<svg width="290" height="291" viewBox="0 0 290 291" fill="none" xmlns="http://www.w3.org/2000/svg">
<rect y="0.706177" width="290" height="290" rx="145" fill="#1E1D23"/>
<path d="M204.529 157.706H85.4706C80.7924 157.706 77 161.499 77 166.177C77 201.263 105.443 229.706 140.529 229.706H149.471C184.557 229.706 213 201.263 213 166.177C213 161.499 209.208 157.706 204.529 157.706Z" fill="#1E1D23"/>
<path d="M204.529 157.706H85.4706C80.7924 157.706 77 161.499 77 166.177C77 201.263 105.443 229.706 140.529 229.706H149.471C184.557 229.706 213 201.263 213 166.177C213 161.499 209.208 157.706 204.529 157.706Z" fill="#F4F4F4"/>
<path d="M95.7443 133.195C106.097 133.195 114.489 124.803 114.489 114.451C114.489 104.098 106.097 95.7062 95.7443 95.7062C85.3921 95.7062 77 104.098 77 114.451C77 124.803 85.3921 133.195 95.7443 133.195Z" fill="#1E1D23"/>
<path d="M95.7443 133.195C106.097 133.195 114.489 124.803 114.489 114.451C114.489 104.098 106.097 95.7062 95.7443 95.7062C85.3921 95.7062 77 104.098 77 114.451C77 124.803 85.3921 133.195 95.7443 133.195Z" fill="#F4F4F4"/>
<path d="M193.994 133.195C204.347 133.195 212.739 124.803 212.739 114.451C212.739 104.098 204.347 95.7062 193.994 95.7062C183.642 95.7062 175.25 104.098 175.25 114.451C175.25 124.803 183.642 133.195 193.994 133.195Z" fill="#1E1D23"/>
<path d="M193.994 133.195C204.347 133.195 212.739 124.803 212.739 114.451C212.739 104.098 204.347 95.7062 193.994 95.7062C183.642 95.7062 175.25 104.098 175.25 114.451C175.25 124.803 183.642 133.195 193.994 133.195Z" fill="#F4F4F4"/>
<path fill-rule="evenodd" clip-rule="evenodd" d="M145 28.7062C80.3827 28.7062 28 81.0889 28 145.706C28 210.324 80.3827 262.706 145 262.706C209.617 262.706 262 210.324 262 145.706C262 81.0889 209.617 28.7062 145 28.7062ZM0 145.706C0 65.6249 64.9187 0.706177 145 0.706177C225.081 0.706177 290 65.6249 290 145.706C290 225.787 225.081 290.706 145 290.706C64.9187 290.706 0 225.787 0 145.706Z" fill="#1E1D23"/>
<path fill-rule="evenodd" clip-rule="evenodd" d="M145 28.7062C80.3827 28.7062 28 81.0889 28 145.706C28 210.324 80.3827 262.706 145 262.706C209.617 262.706 262 210.324 262 145.706C262 81.0889 209.617 28.7062 145 28.7062ZM0 145.706C0 65.6249 64.9187 0.706177 145 0.706177C225.081 0.706177 290 65.6249 290 145.706C290 225.787 225.081 290.706 145 290.706C64.9187 290.706 0 225.787 0 145.706Z" fill="url(#paint0_linear_1_114)"/>
<defs>
<linearGradient id="paint0_linear_1_114" x1="163.692" y1="35.3009" x2="280.663" y2="247.02" gradientUnits="userSpaceOnUse">
<stop stop-color="#4CC9F0"/>
<stop offset="0.28684" stop-color="#4361EE"/>
<stop offset="0.524848" stop-color="#7209B7"/>
<stop offset="0.83892" stop-color="#F72585"/>
</linearGradient>
</defs>
</svg>
