<svg width="291" height="292" viewBox="0 0 291 292" fill="none" xmlns="http://www.w3.org/2000/svg">
<path d="M29 122.22C29 45.6231 45.4169 29.2062 122.014 29.2062H168.986C245.583 29.2062 262 45.6231 262 122.22V169.193C262 245.789 245.583 262.206 168.986 262.206H122.014C45.4169 262.206 29 245.789 29 169.193V122.22Z" fill="#1E1D23"/>
<path fill-rule="evenodd" clip-rule="evenodd" d="M68.8745 4.65883C84.3035 1.22985 102.203 0.206177 122.014 0.206177H168.986C188.797 0.206177 206.696 1.22985 222.126 4.65883C237.884 8.161 252.786 14.5456 264.723 26.4831C276.661 38.4206 283.045 53.3223 286.547 69.0807C289.976 84.5097 291 102.409 291 122.22V169.193C291 189.004 289.976 206.903 286.547 222.332C283.045 238.09 276.661 252.992 264.723 264.929C252.786 276.867 237.884 283.251 222.126 286.754C206.696 290.182 188.797 291.206 168.986 291.206H122.014C102.203 291.206 84.3035 290.182 68.8745 286.754C53.1161 283.251 38.2145 276.867 26.2769 264.929C14.3394 252.992 7.95482 238.09 4.45266 222.332C1.02368 206.903 0 189.004 0 169.193V122.22C0 102.409 1.02368 84.5097 4.45266 69.0807C7.95482 53.3223 14.3394 38.4206 26.2769 26.4831C38.2145 14.5456 53.1161 8.161 68.8745 4.65883ZM122.014 29.2062C45.4169 29.2062 29 45.6231 29 122.22V169.193C29 245.789 45.4169 262.206 122.014 262.206H168.986C245.583 262.206 262 245.789 262 169.193V122.22C262 45.6231 245.583 29.2062 168.986 29.2062H122.014Z" fill="#1E1D23"/>
<path fill-rule="evenodd" clip-rule="evenodd" d="M68.8745 4.65883C84.3035 1.22985 102.203 0.206177 122.014 0.206177H168.986C188.797 0.206177 206.696 1.22985 222.126 4.65883C237.884 8.161 252.786 14.5456 264.723 26.4831C276.661 38.4206 283.045 53.3223 286.547 69.0807C289.976 84.5097 291 102.409 291 122.22V169.193C291 189.004 289.976 206.903 286.547 222.332C283.045 238.09 276.661 252.992 264.723 264.929C252.786 276.867 237.884 283.251 222.126 286.754C206.696 290.182 188.797 291.206 168.986 291.206H122.014C102.203 291.206 84.3035 290.182 68.8745 286.754C53.1161 283.251 38.2145 276.867 26.2769 264.929C14.3394 252.992 7.95482 238.09 4.45266 222.332C1.02368 206.903 0 189.004 0 169.193V122.22C0 102.409 1.02368 84.5097 4.45266 69.0807C7.95482 53.3223 14.3394 38.4206 26.2769 26.4831C38.2145 14.5456 53.1161 8.161 68.8745 4.65883ZM122.014 29.2062C45.4169 29.2062 29 45.6231 29 122.22V169.193C29 245.789 45.4169 262.206 122.014 262.206H168.986C245.583 262.206 262 245.789 262 169.193V122.22C262 45.6231 245.583 29.2062 168.986 29.2062H122.014Z" fill="url(#paint0_linear_1_113)"/>
<path d="M220.351 88.0841C217.089 85.2976 212.853 83.9206 208.576 84.2556C204.298 84.5907 200.329 86.6104 197.54 89.8709L127.875 171.345L90.3974 140.058C88.9138 138.782 87.1912 137.813 85.3299 137.208C83.4685 136.604 81.5056 136.375 79.5551 136.536C77.6046 136.696 75.7055 137.243 73.9682 138.144C72.2309 139.045 70.69 140.283 69.4351 141.785C68.1803 143.286 67.2365 145.023 66.6585 146.893C66.0806 148.762 65.8801 150.728 66.0687 152.676C66.2573 154.624 66.8313 156.515 67.7572 158.24C68.6831 159.964 69.9424 161.487 71.4621 162.72L121.674 204.644C123.222 205.935 125.019 206.893 126.954 207.459C128.889 208.025 130.92 208.186 132.919 207.933C135.04 207.769 137.108 207.188 139.004 206.224C140.901 205.26 142.588 203.932 143.97 202.315L222.128 110.889C224.911 107.624 226.286 103.389 225.95 99.1126C225.615 94.836 223.596 90.8672 220.337 88.0772" fill="#F4F4F4"/>
<defs>
<linearGradient id="paint0_linear_1_113" x1="164.256" y1="34.9202" x2="281.631" y2="247.369" gradientUnits="userSpaceOnUse">
<stop stop-color="#4CC9F0"/>
<stop offset="0.28684" stop-color="#4361EE"/>
<stop offset="0.524848" stop-color="#7209B7"/>
<stop offset="0.83892" stop-color="#F72585"/>
</linearGradient>
</defs>
</svg>
