<svg width="277" height="290" viewBox="0 0 277 290" fill="none" xmlns="http://www.w3.org/2000/svg">
<path d="M56.7259 92.9004L47.1516 108.546C45.1863 111.758 42.305 114.307 38.8783 115.867C29.511 120.131 25.2919 131.117 29.3973 140.555L50.3707 188.77C54.5071 198.279 60.6397 206.787 68.3527 213.718L85.6814 229.29C92.2397 235.183 99.9536 239.646 108.332 242.394C123.665 247.423 140.339 246.425 154.963 239.603L165.203 234.826C177.998 228.856 189.248 220.024 198.084 209.011L207.002 197.896C219.946 181.764 227 161.699 227 141.015V132.757C227 114.827 220.135 97.579 207.814 84.554L197.371 73.5147C190.788 66.5555 181.631 62.6127 172.052 62.6127H164.608C155.69 62.6127 147.569 57.4758 143.749 49.4176C139.928 41.3594 131.808 36.2225 122.89 36.2225H109.069C103.368 36.2225 97.6562 37.3324 92.3606 39.4445C77.9788 45.1804 67.238 57.7989 64.0394 72.9484L63.3338 76.2901C62.0938 82.163 59.859 87.7807 56.7259 92.9004Z" fill="#1E1D23"/>
<path d="M92.2835 171.499L45.5628 89.7709L52.0057 84.9267C51.9852 84.1692 52.0762 83.4062 52.2815 82.6628C52.8193 80.7162 54.0986 79.0593 55.8436 78.0495C57.5886 77.0396 59.6596 76.7576 61.6101 77.2643C61.7526 77.3013 61.8936 77.3423 62.0331 77.3872L64.7644 75.3336L82.5259 80.146L70.0996 55.6464C66.0166 54.1626 61.6384 53.5532 57.2511 53.8943C50.3202 54.4331 43.7763 57.3121 38.6884 62.0609C33.6004 66.8097 30.269 73.1478 29.2382 80.04C28.2075 86.9321 29.5383 93.9709 33.0134 100.007L33.5002 100.852C28.9824 102.11 24.8119 104.389 21.308 107.512C17.8041 110.636 15.0598 114.522 13.2853 118.873C11.5108 123.224 10.7532 127.924 11.0704 132.614C11.3877 137.304 12.7714 141.859 15.1156 145.93L55.4389 215.947C61.2386 226.018 68.96 234.845 78.1624 241.924C87.3648 249.003 97.8679 254.195 109.072 257.205C120.276 260.215 131.962 260.983 143.462 259.465C154.962 257.947 166.051 254.174 176.097 248.359C186.142 242.545 194.947 234.804 202.008 225.579C209.069 216.353 214.249 205.824 217.251 194.592C217.86 192.313 218.377 190.015 218.802 187.703L192.139 196.908C186.659 210.056 177.014 221.137 164.575 228.355L164.576 228.354C149.576 237.013 131.763 239.354 115.044 234.863C98.3246 230.372 84.0653 219.416 75.3942 204.398L35.0709 134.38C34.0523 132.612 33.7764 130.51 34.3036 128.537C34.8309 126.565 36.1183 124.883 37.8825 123.862C39.6466 122.841 41.7432 122.564 43.7109 123.093C45.6785 123.621 47.3561 124.912 48.3747 126.68L69.4964 163.357L69.4983 163.361L73.3367 170.024C74.0932 171.338 75.1003 172.489 76.3007 173.412C77.501 174.336 78.8709 175.013 80.3324 175.406C81.7938 175.798 83.318 175.898 84.818 175.7C86.3181 175.503 87.7645 175.01 89.0748 174.252C90.3052 173.54 91.3928 172.606 92.2835 171.499Z" fill="url(#paint0_linear_1_110)"/>
<path d="M212.101 63.3895C210.045 59.9091 207.326 56.8687 204.098 54.4421C200.87 52.0154 197.197 50.2499 193.289 49.2464C189.38 48.2429 185.313 48.0211 181.319 48.5937C177.325 49.1662 173.483 50.5218 170.011 52.5832C167.782 53.9055 165.726 55.5036 163.894 57.34L149.702 33.3179C147.171 29.041 143.645 25.4415 139.426 22.8268C135.206 20.2121 130.418 18.6597 125.471 18.3023C120.523 17.9448 115.562 18.7929 111.013 20.774C106.463 22.7552 102.459 25.8106 99.3419 29.6795C93.5415 25.8382 86.6133 24.0822 79.6888 24.6982C72.7643 25.3143 66.2528 28.266 61.2178 33.0712C56.1828 37.8764 52.9218 44.2513 51.9676 51.1544C51.0133 58.0576 52.4221 65.0812 55.9639 71.078L56.46 71.9176C51.9565 73.2263 47.8115 75.5509 44.3425 78.7133C40.8734 81.8758 38.1724 85.7923 36.4462 90.1629C34.7201 94.5334 34.0146 99.242 34.3838 103.928C34.7531 108.614 36.1872 113.153 38.5764 117.198L79.6736 186.762C85.5845 196.767 93.4034 205.507 102.684 212.483C111.964 219.459 122.524 224.534 133.761 227.419C144.998 230.304 156.691 230.941 168.174 229.296C179.656 227.65 190.703 223.753 200.683 217.827C210.664 211.901 219.382 204.063 226.341 194.759C233.299 185.455 238.362 174.869 241.239 163.604C244.117 152.339 244.753 140.616 243.111 129.104C241.469 117.593 237.582 106.518 231.671 96.5131L212.101 63.3895ZM188.941 197.951C174.039 206.777 156.252 209.316 139.484 205.012C122.717 200.707 108.337 189.91 99.4995 174.99L58.4024 105.426C57.3643 103.669 57.065 101.571 57.5704 99.5922C58.0758 97.6139 59.3444 95.9178 61.0972 94.8771C62.8499 93.8365 64.9433 93.5365 66.9167 94.0431C68.8901 94.5497 70.5819 95.8215 71.62 97.5787L93.1471 134.018L93.149 134.022L97.0611 140.642C97.8321 141.947 98.8519 143.087 100.062 143.997C101.273 144.907 102.65 145.569 104.116 145.945C105.582 146.321 107.107 146.404 108.605 146.19C110.102 145.975 111.543 145.467 112.845 144.694C114.147 143.921 115.284 142.898 116.192 141.685C117.099 140.471 117.76 139.091 118.135 137.621C118.51 136.152 118.593 134.623 118.379 133.121C118.165 131.62 117.658 130.175 116.887 128.87L75.7899 59.3055C74.7922 57.5506 74.5224 55.4729 75.0386 53.5204C75.5547 51.5678 76.8156 49.8968 78.5493 48.8676C80.283 47.8384 82.3507 47.5333 84.3066 48.0182C86.2626 48.5031 87.9502 49.7391 89.0056 51.4598L130.103 121.023C130.874 122.328 131.894 123.469 133.104 124.378C134.315 125.288 135.692 125.95 137.158 126.327C138.623 126.703 140.149 126.786 141.646 126.571C143.144 126.357 144.585 125.848 145.887 125.076C147.189 124.303 148.326 123.28 149.233 122.067C150.141 120.853 150.801 119.472 151.177 118.003C151.552 116.534 151.635 115.004 151.421 113.503C151.207 112.001 150.7 110.557 149.929 109.252L116.66 52.9381C116.138 52.0678 115.792 51.1027 115.644 50.0982C115.496 49.0936 115.547 48.0696 115.795 47.0851C116.043 46.1005 116.483 45.1748 117.089 44.3614C117.695 43.5479 118.456 42.8627 119.328 42.3452C120.199 41.8277 121.164 41.4882 122.167 41.3461C123.17 41.204 124.191 41.2623 125.172 41.5174C126.152 41.7726 127.073 42.2196 127.88 42.8328C128.687 43.446 129.366 44.2133 129.876 45.0904L159.229 94.7754L159.231 94.7802L176.844 124.592C177.615 125.897 178.635 127.037 179.846 127.947C181.056 128.857 182.434 129.519 183.899 129.896C185.365 130.272 186.89 130.355 188.388 130.14C189.886 129.926 191.327 129.417 192.628 128.644C193.93 127.872 195.067 126.849 195.975 125.636C196.883 124.422 197.543 123.041 197.918 121.572C198.294 120.103 198.377 118.573 198.162 117.072C197.948 115.57 197.441 114.126 196.67 112.821L179.057 83.0087C178.535 82.1384 178.19 81.1733 178.042 80.1687C177.893 79.1642 177.945 78.1402 178.193 77.1557C178.441 76.1711 178.881 75.2454 179.487 74.432C180.093 73.6185 180.854 72.9333 181.726 72.4158C182.597 71.8983 183.562 71.5588 184.565 71.4167C185.568 71.2746 186.589 71.3329 187.569 71.588C188.55 71.8432 189.47 72.2902 190.278 72.9034C191.085 73.5166 191.764 74.2839 192.274 75.161L211.844 108.286C220.648 123.226 223.18 141.057 218.887 157.867C214.593 174.677 203.823 189.093 188.94 197.952L188.941 197.951Z" fill="url(#paint1_linear_1_110)"/>
<path fill-rule="evenodd" clip-rule="evenodd" d="M201.889 1.00717C206.053 1.53642 208.995 5.34049 208.462 9.5038L205.802 30.2568C205.269 34.4201 201.461 37.3661 197.297 36.8368C193.134 36.3076 190.191 32.5035 190.725 28.3402L193.384 7.58723C193.918 3.42392 197.726 0.477927 201.889 1.00717Z" fill="#5C5C66"/>
<path fill-rule="evenodd" clip-rule="evenodd" d="M243.308 20.1742C246.716 22.5999 247.374 27.2543 244.778 30.5699L231.456 47.5824C228.86 50.8981 223.993 51.6195 220.585 49.1937C217.177 46.7679 216.519 42.1136 219.115 38.7979L232.436 21.7855C235.033 18.4698 239.9 17.7484 243.308 20.1742Z" fill="#5C5C66"/>
<path fill-rule="evenodd" clip-rule="evenodd" d="M272.502 53.7612C274.509 57.4288 273.054 61.8725 269.251 63.6864L249.186 73.257C245.383 75.0709 240.673 73.5681 238.665 69.9005C236.658 66.2329 238.114 61.7892 241.917 59.9753L261.982 50.4047C265.785 48.5908 270.495 50.0936 272.502 53.7612Z" fill="#5C5C66"/>
<path fill-rule="evenodd" clip-rule="evenodd" d="M58.9052 287.101C54.8735 285.937 52.567 281.728 53.7535 277.702L59.4199 258.47C60.6063 254.443 64.8365 252.122 68.8682 253.286C72.8999 254.45 75.2064 258.658 74.02 262.685L68.3536 281.917C67.1671 285.944 62.9369 288.265 58.9052 287.101Z" fill="#5C5C66"/>
<path fill-rule="evenodd" clip-rule="evenodd" d="M22.3288 264.967C19.3215 262.067 19.4038 257.407 22.5125 254.558L37.8843 240.475C40.9931 237.627 45.9512 237.669 48.9585 240.569C51.9657 243.47 51.8835 248.13 48.7747 250.978L33.4029 265.062C30.2941 267.91 25.3361 267.868 22.3288 264.967Z" fill="#5C5C66"/>
<path fill-rule="evenodd" clip-rule="evenodd" d="M2.91185 228.255C1.46855 224.336 3.58178 220.205 7.63187 219.029L28.3825 213.004C32.4326 211.828 36.8859 214.053 38.3292 217.972C39.7725 221.892 37.6593 226.023 33.6092 227.199L12.8585 233.224C8.80842 234.399 4.35515 232.175 2.91185 228.255Z" fill="#5C5C66"/>
<defs>
<linearGradient id="paint0_linear_1_110" x1="142.518" y1="47.0912" x2="242.065" y2="220.573" gradientUnits="userSpaceOnUse">
<stop stop-color="#4CC9F0"/>
<stop offset="0.28684" stop-color="#4361EE"/>
<stop offset="0.524848" stop-color="#7209B7"/>
<stop offset="0.83892" stop-color="#F72585"/>
</linearGradient>
<linearGradient id="paint1_linear_1_110" x1="142.518" y1="47.0912" x2="242.065" y2="220.573" gradientUnits="userSpaceOnUse">
<stop stop-color="#4CC9F0"/>
<stop offset="0.28684" stop-color="#4361EE"/>
<stop offset="0.524848" stop-color="#7209B7"/>
<stop offset="0.83892" stop-color="#F72585"/>
</linearGradient>
</defs>
</svg>
