<svg width="261" height="291" viewBox="0 0 261 291" fill="none" xmlns="http://www.w3.org/2000/svg">
<path fill-rule="evenodd" clip-rule="evenodd" d="M165.78 34.9717C164.836 33.0805 163.5 31.412 161.861 30.0769C160.222 28.7419 158.318 27.7709 156.275 27.2284C154.233 26.686 152.098 26.5846 150.013 26.9309C147.927 27.2772 145.94 28.0634 144.182 29.2371C139.043 32.6629 135.037 37.5485 131.938 42.3446C128.751 47.26 125.936 52.9647 123.448 58.9674C118.473 70.9429 114.303 85.3016 110.937 99.6901C106.866 117.273 103.817 135.078 101.806 153.014C95.7457 149.107 90.8763 143.609 87.7303 137.121C82.8447 126.992 81.8021 114.272 81.8021 97.5899C81.8015 94.6444 80.9276 91.7653 79.2908 89.3164C77.6541 86.8675 75.3281 84.9589 72.6068 83.8318C69.8855 82.7047 66.8911 82.4097 64.0022 82.9842C61.1133 83.5587 58.4595 84.9767 56.3765 87.0592C46.6823 96.7325 38.9945 108.226 33.7545 120.878C28.5144 133.531 25.8254 147.094 25.8419 160.789C25.8431 177.935 30.0727 194.816 38.1561 209.937C46.2394 225.058 57.927 237.952 72.1837 247.477C86.4403 257.002 102.826 262.864 119.889 264.544C136.953 266.224 154.167 263.671 170.008 257.109C185.848 250.547 199.826 240.18 210.704 226.927C221.581 213.673 229.022 197.941 232.367 181.125C235.712 164.308 234.859 146.926 229.882 130.519C224.906 114.111 215.96 99.1838 203.836 87.0592C195.018 78.2563 189.239 72.3877 183.758 65.2083C178.351 58.1184 172.974 49.375 165.78 34.9717ZM161.684 222.156C155.434 228.397 147.476 232.647 138.813 234.368C130.15 236.089 121.172 235.204 113.012 231.825C104.851 228.446 97.8754 222.725 92.9648 215.384C88.0543 208.043 85.4293 199.411 85.4216 190.579C85.4216 190.579 98.5142 198.026 122.659 198.026C122.659 183.131 130.106 138.447 141.278 130.999C148.725 145.894 152.985 150.258 161.698 158.987C165.855 163.13 169.151 168.054 171.398 173.476C173.645 178.898 174.798 184.71 174.791 190.579C174.798 196.448 173.645 202.26 171.398 207.682C169.151 213.103 165.855 218.028 161.698 222.171L161.684 222.156Z" fill="#1E1D23"/>
<path fill-rule="evenodd" clip-rule="evenodd" d="M165.78 34.9716C164.836 33.0805 163.5 31.4119 161.861 30.0769C160.222 28.7418 158.318 27.7708 156.275 27.2284C154.233 26.6859 152.098 26.5845 150.013 26.9309C147.927 27.2772 145.94 28.0633 144.182 29.237C139.043 32.6629 135.037 37.5484 131.938 42.3446C128.751 47.2599 125.936 52.9647 123.448 58.9673C118.473 70.9428 114.303 85.3015 110.937 99.69C109.946 103.969 109.016 108.261 108.146 112.565C107.066 117.911 106.08 123.276 105.188 128.655C105.186 128.672 105.183 128.688 105.18 128.704C103.843 136.775 102.718 144.881 101.806 153.014C95.7457 149.107 90.8763 143.609 87.7303 137.121C84.2402 129.885 82.7113 121.327 82.1226 110.947C81.8872 106.797 81.8021 102.355 81.8021 97.5898C81.8015 94.6444 80.9276 91.7652 79.2908 89.3163C77.6541 86.8675 75.3281 84.9588 72.6068 83.8317C69.8855 82.7046 66.8911 82.4097 64.0022 82.9841C61.1133 83.5586 58.4595 84.9767 56.3765 87.0591C46.6823 96.7324 38.9945 108.225 33.7545 120.878C28.5144 133.531 25.8254 147.094 25.8419 160.789C25.8431 177.935 30.0727 194.816 38.1561 209.937C46.2394 225.057 57.927 237.951 72.1837 247.477C86.4403 257.002 102.826 262.864 119.889 264.544C136.953 266.224 154.167 263.67 170.008 257.109C185.848 250.547 199.826 240.18 210.704 226.927C221.581 213.673 229.022 197.941 232.367 181.125C235.712 164.308 234.859 146.926 229.882 130.519C224.906 114.111 215.96 99.1837 203.836 87.0591C195.018 78.2562 189.239 72.3876 183.758 65.2083C178.351 58.1183 172.974 49.375 165.78 34.9716ZM125.733 171.536C123.845 181.733 122.762 191.383 122.666 197.208C122.661 197.49 122.659 197.763 122.659 198.026C119.069 198.026 115.723 197.862 112.629 197.581C106.317 197.01 101.049 195.956 96.8828 194.838C89.3539 192.816 85.4216 190.579 85.4216 190.579C85.4293 199.411 88.0543 208.043 92.9648 215.384C94.451 217.606 96.1264 219.679 97.9665 221.584C102.206 225.974 107.321 229.469 113.012 231.825C121.172 235.204 130.15 236.089 138.813 234.368C147.476 232.647 155.434 228.397 161.684 222.156L161.698 222.171C161.73 222.139 161.762 222.108 161.793 222.076C162.101 221.768 162.404 221.455 162.702 221.138C166.387 217.218 169.335 212.66 171.398 207.682C172.679 204.59 173.605 201.372 174.162 198.089C174.583 195.614 174.794 193.102 174.791 190.579C174.798 184.71 173.645 178.898 171.398 173.476C169.151 168.054 165.855 163.13 161.698 158.987C159.927 157.212 158.34 155.618 156.872 154.079C151.121 148.049 147.211 142.866 141.278 130.999C135.936 134.56 131.446 146.634 128.214 159.895C127.278 163.735 126.448 167.674 125.733 171.536ZM148.745 193.389C148.799 192.749 148.863 192.071 148.935 191.359C148.909 192.04 148.845 192.717 148.745 193.389ZM7.60201e-05 160.805C-0.0184212 143.712 3.3388 126.783 9.87914 110.99C16.4205 95.1954 26.0171 80.848 38.1181 68.7717C38.1198 68.77 38.1215 68.7683 38.1232 68.7666C43.8178 63.0804 51.069 59.2081 58.9622 57.6386C66.8632 56.0675 75.0527 56.8742 82.4953 59.9567C86.4142 61.5799 90.0334 63.7956 93.2355 66.5077C95.1658 60.4842 97.2756 54.6119 99.5751 49.0744C99.5759 49.0725 99.5767 49.0706 99.5775 49.0687C102.444 42.1512 105.946 34.9337 110.25 28.2946C114.346 21.9587 120.63 13.8851 129.832 7.7456C129.835 7.74383 129.838 7.74206 129.84 7.74029C129.843 7.73865 129.845 7.73701 129.848 7.73537C134.651 4.531 140.082 2.3845 145.778 1.43831C151.481 0.491123 157.32 0.768488 162.907 2.25199C168.494 3.73549 173.702 6.39113 178.184 10.0425C182.664 13.6926 186.316 18.2542 188.898 23.4244C188.899 23.426 188.9 23.4276 188.9 23.4292C195.66 36.9626 200.212 44.1676 204.298 49.5265M7.60201e-05 160.805C0.00389868 182.195 5.28171 203.255 15.3663 222.12C25.4531 240.988 40.0375 257.078 57.8276 268.964C75.6178 280.85 96.0646 288.165 117.357 290.262C138.65 292.358 160.13 289.171 179.897 280.983C199.664 272.796 217.106 259.859 230.679 243.32C244.253 226.782 253.538 207.151 257.712 186.167C261.887 165.182 260.822 143.492 254.612 123.018C248.402 102.544 237.238 83.9168 222.11 68.7872L222.094 68.7708C213.145 59.837 208.573 55.126 204.299 49.5281" fill="url(#paint0_linear_1_111)"/>
<path d="M125.733 171.351C123.845 181.549 122.762 191.199 122.666 197.024C122.661 197.305 122.659 197.578 122.659 197.842C119.069 197.842 115.723 197.677 112.629 197.397C106.317 196.825 101.049 195.772 96.8829 194.653C89.354 192.631 85.4216 190.394 85.4216 190.394C85.4294 199.226 88.0543 207.858 92.9649 215.199C94.451 217.421 96.1264 219.495 97.9665 221.4C102.206 225.789 107.321 229.284 113.012 231.641C121.172 235.019 130.15 235.904 138.813 234.183C147.476 232.462 155.435 228.213 161.684 221.972L161.699 221.986C161.73 221.955 161.762 221.923 161.794 221.891C162.101 221.583 162.404 221.27 162.702 220.953C166.387 217.033 169.335 212.475 171.398 207.497C172.679 204.406 173.605 201.188 174.162 197.904C174.583 195.429 174.794 192.917 174.791 190.394C174.798 184.526 173.645 178.713 171.398 173.292C169.151 167.87 165.855 162.946 161.699 158.802C159.927 157.028 158.34 155.434 156.872 153.895C151.121 147.864 147.211 142.681 141.278 130.815C135.936 134.376 131.446 146.45 128.214 159.71C127.278 163.55 126.448 167.49 125.733 171.351Z" fill="#F4F4F4"/>
<defs>
<linearGradient id="paint0_linear_1_111" x1="146.878" y1="35.4825" x2="270.255" y2="235.859" gradientUnits="userSpaceOnUse">
<stop stop-color="#4CC9F0"/>
<stop offset="0.28684" stop-color="#4361EE"/>
<stop offset="0.524848" stop-color="#7209B7"/>
<stop offset="0.83892" stop-color="#F72585"/>
</linearGradient>
</defs>
</svg>
