<svg width="290" height="291" viewBox="0 0 290 291" fill="none" xmlns="http://www.w3.org/2000/svg">
<rect y="0.706177" width="290" height="290" rx="145" fill="#1E1D23"/>
<path fill-rule="evenodd" clip-rule="evenodd" d="M145 28.7062C80.3827 28.7062 28 81.0889 28 145.706C28 210.324 80.3827 262.706 145 262.706C209.617 262.706 262 210.324 262 145.706C262 81.0889 209.617 28.7062 145 28.7062ZM0 145.706C0 65.6249 64.9187 0.706177 145 0.706177C225.081 0.706177 290 65.6249 290 145.706C290 225.787 225.081 290.706 145 290.706C64.9187 290.706 0 225.787 0 145.706Z" fill="#1E1D23"/>
<path fill-rule="evenodd" clip-rule="evenodd" d="M145 28.7062C80.3827 28.7062 28 81.0889 28 145.706C28 210.324 80.3827 262.706 145 262.706C209.617 262.706 262 210.324 262 145.706C262 81.0889 209.617 28.7062 145 28.7062ZM0 145.706C0 65.6249 64.9187 0.706177 145 0.706177C225.081 0.706177 290 65.6249 290 145.706C290 225.787 225.081 290.706 145 290.706C64.9187 290.706 0 225.787 0 145.706Z" fill="url(#paint0_linear_1_115)"/>
<path fill-rule="evenodd" clip-rule="evenodd" d="M116.84 167.053C125.638 162.874 135.258 160.706 145 160.706C154.742 160.706 164.362 162.874 173.16 167.053C181.958 171.231 189.713 177.317 195.859 184.868C200.739 190.866 199.834 199.684 193.837 204.564C187.84 209.444 179.022 208.539 174.142 202.542C170.627 198.224 166.189 194.739 161.147 192.345C156.105 189.95 150.588 188.706 145 188.706C139.412 188.706 133.896 189.95 128.854 192.345C123.812 194.74 119.373 198.225 115.859 202.543C110.979 208.54 102.161 209.445 96.1635 204.565C90.1664 199.685 89.2611 190.867 94.1414 184.87C100.287 177.318 108.042 171.232 116.84 167.053Z" fill="#1E1D23"/>
<path fill-rule="evenodd" clip-rule="evenodd" d="M116.84 167.053C125.638 162.874 135.258 160.706 145 160.706C154.742 160.706 164.362 162.874 173.16 167.053C181.958 171.231 189.713 177.317 195.859 184.868C200.739 190.866 199.834 199.684 193.837 204.564C187.84 209.444 179.022 208.539 174.142 202.542C170.627 198.224 166.189 194.739 161.147 192.345C156.105 189.95 150.588 188.706 145 188.706C139.412 188.706 133.896 189.95 128.854 192.345C123.812 194.74 119.373 198.225 115.859 202.543C110.979 208.54 102.161 209.445 96.1635 204.565C90.1664 199.685 89.2611 190.867 94.1414 184.87C100.287 177.318 108.042 171.232 116.84 167.053Z" fill="#F4F4F4"/>
<path d="M95.6145 134.949C105.967 134.949 114.359 126.557 114.359 116.205C114.359 105.853 105.967 97.4606 95.6145 97.4606C85.2622 97.4606 76.8701 105.853 76.8701 116.205C76.8701 126.557 85.2622 134.949 95.6145 134.949Z" fill="#1E1D23"/>
<path d="M95.6145 134.949C105.967 134.949 114.359 126.557 114.359 116.205C114.359 105.853 105.967 97.4606 95.6145 97.4606C85.2622 97.4606 76.8701 105.853 76.8701 116.205C76.8701 126.557 85.2622 134.949 95.6145 134.949Z" fill="#F4F4F4"/>
<path d="M193.864 134.949C204.217 134.949 212.609 126.557 212.609 116.205C212.609 105.853 204.217 97.4606 193.864 97.4606C183.512 97.4606 175.12 105.853 175.12 116.205C175.12 126.557 183.512 134.949 193.864 134.949Z" fill="#1E1D23"/>
<path d="M193.864 134.949C204.217 134.949 212.609 126.557 212.609 116.205C212.609 105.853 204.217 97.4606 193.864 97.4606C183.512 97.4606 175.12 105.853 175.12 116.205C175.12 126.557 183.512 134.949 193.864 134.949Z" fill="#F4F4F4"/>
<defs>
<linearGradient id="paint0_linear_1_115" x1="163.692" y1="35.3009" x2="280.663" y2="247.02" gradientUnits="userSpaceOnUse">
<stop stop-color="#4CC9F0"/>
<stop offset="0.28684" stop-color="#4361EE"/>
<stop offset="0.524848" stop-color="#7209B7"/>
<stop offset="0.83892" stop-color="#F72585"/>
</linearGradient>
</defs>
</svg>
