<svg width="466" height="211" viewBox="0 0 466 211" fill="none" xmlns="http://www.w3.org/2000/svg">
<g clip-path="url(#clip0_1_104)">
<path d="M137.108 27.5794H180.062V127.866C179.937 149.031 174.21 164.345 162.88 173.807C151.55 183.394 134.058 188.187 110.402 188.187C85.8755 188.187 59.3564 185.013 30.8454 178.663L36.8215 146.541C51.0148 149.28 63.0915 151.273 73.0517 152.518C83.1364 153.887 92.9098 154.572 102.372 154.572C113.826 154.572 122.479 152.767 128.331 149.156C134.182 145.67 137.108 139.071 137.108 129.36V116.474C131.755 124.442 124.471 130.294 115.258 134.029C106.169 137.764 96.1469 139.632 85.1907 139.632C74.7325 139.632 64.8345 137.702 55.4969 133.842C46.2837 129.983 38.689 123.757 32.7129 115.167C26.8613 106.452 23.9355 95.3087 23.9355 81.7379C23.9355 68.1672 26.8613 57.0864 32.7129 48.4958C38.689 39.7806 46.2837 33.4932 55.4969 29.6337C64.8345 25.7741 74.7325 23.8443 85.1907 23.8443C96.1469 23.8443 106.169 25.7118 115.258 29.4469C124.471 33.182 131.755 39.0336 137.108 47.0017V27.5794ZM102.932 104.148C115.009 104.148 123.724 102.281 129.078 98.5457C134.431 94.8107 137.108 89.2081 137.108 81.7379C137.108 74.2678 134.431 68.6652 129.078 64.9301C123.724 61.195 115.009 59.3275 102.932 59.3275C90.8556 59.3275 82.1404 61.195 76.7868 64.9301C71.4332 68.6652 68.7564 74.2678 68.7564 81.7379C68.7564 89.2081 71.4332 94.8107 76.7868 98.5457C82.1404 102.281 90.8556 104.148 102.932 104.148Z" fill="#1E1D23"/>
<path d="M393.436 23.8443C407.879 23.8443 419.706 28.2641 428.92 37.1038C438.257 45.819 442.926 59.3897 442.926 77.8161V139.632H399.973V84.5392C399.973 75.326 397.918 68.8519 393.81 65.1168C389.701 61.2573 383.165 59.3275 374.201 59.3275C365.237 59.3275 357.953 61.3195 352.351 65.3036C346.872 69.2877 344.133 75.6995 344.133 84.5392V139.632H301.18V84.5392C301.18 75.326 299.126 68.8519 295.017 65.1168C290.909 61.2573 284.372 59.3275 275.408 59.3275C266.444 59.3275 259.16 61.3195 253.558 65.3036C248.08 69.2877 245.341 75.6995 245.341 84.5392V139.632H202.387V27.5794H245.341V47.3753C258.164 31.6879 274.599 23.8443 294.644 23.8443C305.226 23.8443 314.502 26.2098 322.47 30.9409C330.563 35.5475 336.414 42.7687 340.025 52.6044C346.623 43.3912 354.28 36.2945 362.995 31.3144C371.711 26.3343 381.858 23.8443 393.436 23.8443Z" fill="#1E1D23"/>
<path fill-rule="evenodd" clip-rule="evenodd" d="M124.474 8.47467C128.095 6.07531 132.438 4.67794 137.107 4.67794H180.06C184.113 4.67794 187.92 5.73083 191.223 7.57801C194.525 5.73083 198.333 4.67794 202.386 4.67794H245.34C250.132 4.67794 254.579 6.14946 258.256 8.66523C269.28 3.55767 281.475 0.942871 294.643 0.942871C308.676 0.942871 322.043 4.10148 333.984 11.1445C337.14 12.9551 340.056 14.9999 342.738 17.2553C345.577 15.1417 348.541 13.1966 351.632 11.4304C364.308 4.18687 378.49 0.942871 393.436 0.942871C412.896 0.942871 430.634 7.0687 444.663 20.4725C460.289 35.135 465.826 55.9471 465.826 77.8162V139.632C465.826 152.28 455.572 162.533 442.925 162.533H399.972C-21633.1 162.533 983.641 162.533 344.132 162.533H301.179C241.964 162.533 299.315 162.533 245.34 162.533H202.386C200.732 162.533 199.12 162.358 197.565 162.025C193.573 173.31 187.153 183.354 177.616 191.337C160.318 205.942 136.416 211.089 110.4 211.089C83.918 211.089 55.7109 207.664 25.8662 201.017C13.8262 198.336 6.07324 186.601 8.3291 174.474L14.3057 142.353C14.8975 139.172 16.1484 136.186 17.9453 133.57C16.5391 131.865 15.1943 130.089 13.9111 128.245C13.8398 128.142 13.7686 128.038 13.6982 127.933C4.66504 114.479 1.03223 98.5361 1.03223 81.738C1.03223 64.9588 4.65723 49.0014 13.7842 35.6031L13.8242 35.5444C22.1396 23.4174 33.1309 14.1727 46.6465 8.51081L46.748 8.46891C58.957 3.42241 71.8369 0.942871 85.1895 0.942871C98.7705 0.942871 111.774 3.26447 123.912 8.24411C124.1 8.3203 124.287 8.39715 124.474 8.47467ZM137.107 27.5794V47.0018C135.652 44.8361 134.055 42.8267 132.314 40.9737C127.651 36.0091 121.966 32.1669 115.257 29.447C114.907 29.3035 114.558 29.1628 114.206 29.0249C105.397 25.5712 95.7256 23.8444 85.1895 23.8444C74.7314 23.8444 64.833 25.7742 55.4951 29.6337C46.2822 33.4933 38.6875 39.7807 32.7109 48.4958C26.8594 57.0865 23.9336 68.1672 23.9336 81.738C23.9336 95.3088 26.8594 106.452 32.7109 115.167C34.9678 118.411 37.4561 121.318 40.1748 123.887C40.46 124.157 40.7471 124.423 41.0381 124.685C45.3076 128.541 50.126 131.593 55.4951 133.842C61.667 136.393 68.083 138.101 74.7441 138.966C74.792 138.972 74.8408 138.978 74.8887 138.985C78.2598 139.416 81.6934 139.632 85.1895 139.632C91.1973 139.632 96.9248 139.07 102.371 137.947C106.856 137.022 111.152 135.716 115.257 134.029C116.26 133.622 117.24 133.191 118.197 132.734C118.288 132.691 118.378 132.647 118.469 132.603C120.472 131.633 122.373 130.552 124.175 129.36C127.166 127.38 129.88 125.094 132.314 122.502C134.055 120.649 135.652 118.64 137.107 116.474V129.36C137.107 139.071 134.181 145.67 128.329 149.156C126.643 150.197 124.723 151.087 122.571 151.828C122.542 151.838 122.514 151.848 122.484 151.858C117.184 153.667 110.479 154.572 102.371 154.572C96.7529 154.572 91.0264 154.331 85.1895 153.848C81.1943 153.518 77.1484 153.074 73.0508 152.518C66.1475 151.655 58.2275 150.433 49.291 148.853C49.2656 148.848 49.2393 148.843 49.2139 148.839C48.875 148.779 48.5352 148.718 48.1934 148.657C44.5664 148.01 40.7764 147.305 36.8203 146.541L30.8447 178.663C59.3555 185.013 85.874 188.188 110.4 188.188C134.056 188.188 151.55 183.394 162.879 173.808C172.234 165.995 177.769 154.192 179.484 138.4C179.847 135.066 180.038 131.555 180.06 127.866V27.5794H137.107ZM133.8 93.8117C136.005 90.5561 137.107 86.5316 137.107 81.738C137.107 76.9444 136.005 72.9199 133.8 69.6643C132.569 67.8465 130.994 66.2685 129.076 64.9302C126.461 63.1055 123.043 61.7265 118.823 60.7932C114.405 59.8161 109.107 59.3276 102.931 59.3276C90.8545 59.3276 82.1387 61.1951 76.7852 64.9302C71.4316 68.6652 68.7549 74.2678 68.7549 81.738C68.7549 89.2081 71.4316 94.8107 76.7852 98.5458C82.1387 102.281 90.8545 104.148 102.931 104.148C109.107 104.148 114.405 103.66 118.823 102.683C123.043 101.75 126.461 100.371 129.076 98.5458C130.994 97.2075 132.569 95.6295 133.8 93.8117ZM202.386 139.632H245.34V84.5393C245.34 78.5794 246.585 73.7231 249.075 69.9704C250.278 68.1572 251.771 66.6016 253.557 65.3037C256.083 63.5066 258.953 62.1149 262.164 61.1284C262.815 60.9284 263.48 60.7451 264.159 60.5784C267.557 59.7445 271.306 59.3276 275.407 59.3276C284.371 59.3276 290.907 61.2573 295.016 65.1169C299.124 68.852 301.179 75.3261 301.179 84.5393V139.632H344.132V84.5393C344.132 80.8905 344.599 77.6554 345.532 74.8339C346.859 70.82 349.133 67.6432 352.35 65.3037C353.269 64.6502 354.232 64.0503 355.242 63.504C357.564 62.2472 360.125 61.2741 362.926 60.5846C366.33 59.7466 370.088 59.3276 374.199 59.3276C383.164 59.3276 389.7 61.2573 393.809 65.1169C397.917 68.852 399.972 75.3261 399.972 84.5393V139.632H442.925V77.8162C442.925 59.3898 438.256 45.819 428.918 37.1039C419.705 28.2642 407.878 23.8444 393.436 23.8444C381.856 23.8444 371.709 26.3344 362.994 31.3145C360.998 32.4551 359.058 33.7067 357.172 35.0693C354.896 36.7146 352.701 38.5218 350.587 40.4908C347.448 43.4149 344.486 46.6958 341.704 50.3338C341.662 50.3878 341.621 50.4419 341.58 50.4961C341.055 51.1861 340.536 51.8889 340.023 52.6044C339.374 50.8347 338.651 49.1496 337.856 47.5492C334.912 41.6198 330.972 36.8523 326.036 33.2466C324.899 32.4165 323.711 31.648 322.469 30.941C314.501 26.2099 305.226 23.8444 294.643 23.8444C285.008 23.8444 276.208 25.6565 268.241 29.2806C262.249 32.0068 256.729 35.7583 251.68 40.5351C249.477 42.6199 247.363 44.8999 245.34 47.3753V27.5794H202.386V139.632Z" fill="url(#paint0_linear_1_104)"/>
</g>
<defs>
<linearGradient id="paint0_linear_1_104" x1="195.931" y1="31.0355" x2="230.915" y2="222.661" gradientUnits="userSpaceOnUse">
<stop stop-color="#4CC9F0"/>
<stop offset="0.28684" stop-color="#4361EE"/>
<stop offset="0.524848" stop-color="#7209B7"/>
<stop offset="0.83892" stop-color="#F72585"/>
</linearGradient>
<clipPath id="clip0_1_104">
<rect width="465" height="210.096" fill="white" transform="translate(0.930908 0.8396)"/>
</clipPath>
</defs>
</svg>
