<svg width="343" height="306" viewBox="0 0 343 306" fill="none" xmlns="http://www.w3.org/2000/svg">
<path d="M26.2126 104.68C26.2109 94.2691 28.2841 83.9628 32.3113 74.3628C36.3384 64.7629 42.2387 56.0619 49.6672 48.7685C57.0957 41.475 65.9034 35.7354 75.5757 31.8851C85.2479 28.0347 95.5906 26.1509 105.999 26.3437C118.315 26.2783 130.504 28.8311 141.758 33.8331C153.012 38.835 163.075 46.1717 171.279 55.357C179.483 46.1717 189.546 38.835 200.8 33.8331C212.055 28.8311 224.243 26.2783 236.559 26.3437C246.968 26.1509 257.31 28.0347 266.983 31.8851C276.655 35.7354 285.463 41.475 292.891 48.7685C300.32 56.0619 306.22 64.7629 310.247 74.3628C314.274 83.9628 316.347 94.2691 316.346 104.68C316.346 174.867 240.833 229.523 187.514 273.652C178.145 281.406 164.446 281.368 155.101 273.585C101.847 229.233 26.2126 174.932 26.2126 104.68Z" fill="#1E1D23"/>
<path fill-rule="evenodd" clip-rule="evenodd" d="M0.212647 104.68C0.210862 90.8154 2.97224 77.0899 8.33544 64.305C13.6992 51.5188 21.5578 39.93 31.4518 30.2158C41.3459 20.5016 53.077 12.857 65.9594 7.72875C78.7454 2.63889 92.411 0.129133 106.169 0.342848C122.064 0.301777 137.79 3.61735 152.318 10.0739C158.988 13.0384 165.336 16.6342 171.279 20.8013C177.223 16.6342 183.571 13.0384 190.241 10.0739C204.768 3.61735 220.494 0.301777 236.389 0.342848C250.147 0.129133 263.813 2.63889 276.599 7.72875C289.481 12.857 301.212 20.5016 311.106 30.2158C321 39.93 328.859 51.5188 334.223 64.305C339.586 77.0899 342.347 90.8154 342.346 104.68M236.559 26.3437C224.243 26.2783 212.055 28.8311 200.8 33.833C195.537 36.1722 190.535 39.022 185.861 42.3326C180.541 46.1013 175.647 50.4672 171.279 55.357C166.912 50.4672 162.017 46.1013 156.697 42.3326C152.023 39.0219 147.021 36.1722 141.758 33.833C130.504 28.8311 118.315 26.2783 105.999 26.3437C95.5906 26.1509 85.2479 28.0347 75.5757 31.8851C65.9034 35.7354 57.0957 41.475 49.6672 48.7685C42.2387 56.0619 36.3384 64.7629 32.3113 74.3628C28.2841 83.9628 26.2109 94.2691 26.2126 104.68C26.2126 168.122 87.894 218.555 139.072 260.401C144.566 264.893 149.939 269.286 155.101 273.585C164.446 281.368 178.145 281.406 187.514 273.652C192.277 269.71 197.217 265.684 202.265 261.57C253.722 219.634 316.346 168.597 316.346 104.68C316.347 94.2691 314.274 83.9628 310.247 74.3628C306.22 64.7629 300.32 56.0619 292.891 48.7685C285.463 41.475 276.655 35.7354 266.983 31.8851C257.31 28.0347 246.968 26.1509 236.559 26.3437ZM0.212647 104.684C0.214246 149.476 24.3102 186.717 51.5172 216.41C73.5299 240.434 100.346 262.344 123.253 281.061C128.57 285.405 133.676 289.577 138.462 293.564C157.398 309.335 185.055 309.437 204.091 293.682C208.542 289.998 213.262 286.155 218.164 282.162C241.385 263.251 268.712 240.996 291.118 216.476C318.304 186.725 342.344 149.419 342.346 104.684" fill="#1E1D23"/>
<path fill-rule="evenodd" clip-rule="evenodd" d="M0.212647 104.68C0.210862 90.8154 2.97224 77.0899 8.33544 64.305C13.6992 51.5188 21.5578 39.93 31.4518 30.2158C41.3459 20.5016 53.077 12.857 65.9594 7.72875C78.7454 2.63889 92.411 0.129133 106.169 0.342848C122.064 0.301777 137.79 3.61735 152.318 10.0739C158.988 13.0384 165.336 16.6342 171.279 20.8013C177.223 16.6342 183.571 13.0384 190.241 10.0739C204.768 3.61735 220.494 0.301777 236.389 0.342848C250.147 0.129133 263.813 2.63889 276.599 7.72875C289.481 12.857 301.212 20.5016 311.106 30.2158C321 39.93 328.859 51.5188 334.223 64.305C339.586 77.0899 342.347 90.8154 342.346 104.68M236.559 26.3437C224.243 26.2783 212.055 28.8311 200.8 33.833C195.537 36.1722 190.535 39.022 185.861 42.3326C180.541 46.1013 175.647 50.4672 171.279 55.357C166.912 50.4672 162.017 46.1013 156.697 42.3326C152.023 39.0219 147.021 36.1722 141.758 33.833C130.504 28.8311 118.315 26.2783 105.999 26.3437C95.5906 26.1509 85.2479 28.0347 75.5757 31.8851C65.9034 35.7354 57.0957 41.475 49.6672 48.7685C42.2387 56.0619 36.3384 64.7629 32.3113 74.3628C28.2841 83.9628 26.2109 94.2691 26.2126 104.68C26.2126 168.122 87.894 218.555 139.072 260.401C144.566 264.893 149.939 269.286 155.101 273.585C164.446 281.368 178.145 281.406 187.514 273.652C192.277 269.71 197.217 265.684 202.265 261.57C253.722 219.634 316.346 168.597 316.346 104.68C316.347 94.2691 314.274 83.9628 310.247 74.3628C306.22 64.7629 300.32 56.0619 292.891 48.7685C285.463 41.475 276.655 35.7354 266.983 31.8851C257.31 28.0347 246.968 26.1509 236.559 26.3437ZM0.212647 104.684C0.214246 149.476 24.3102 186.717 51.5172 216.41C73.5299 240.434 100.346 262.344 123.253 281.061C128.57 285.405 133.676 289.577 138.462 293.564C157.398 309.335 185.055 309.437 204.091 293.682C208.542 289.998 213.262 286.155 218.164 282.162C241.385 263.251 268.712 240.996 291.118 216.476C318.304 186.725 342.344 149.419 342.346 104.684" fill="url(#paint0_linear_1_118)"/>
<defs>
<linearGradient id="paint0_linear_1_118" x1="184.587" y1="36.7281" x2="303.416" y2="265.846" gradientUnits="userSpaceOnUse">
<stop stop-color="#4CC9F0"/>
<stop offset="0.28684" stop-color="#4361EE"/>
<stop offset="0.524848" stop-color="#7209B7"/>
<stop offset="0.83892" stop-color="#F72585"/>
</linearGradient>
</defs>
</svg>
