<svg width="666" height="271" viewBox="0 0 666 271" fill="none" xmlns="http://www.w3.org/2000/svg">
<path d="M585.991 68.3632C606.991 68.3632 635.591 76.7632 635.591 118.163V190.363H587.591V139.763C587.591 119.163 582.191 110.363 564.591 110.363C552.391 110.363 542.191 115.563 531.991 125.563V190.363H483.991V139.763C483.991 119.163 478.591 110.363 460.991 110.363C448.791 110.363 438.591 115.563 428.391 125.563V190.363H380.391V70.3632H428.391V90.3632C438.991 80.3632 453.191 68.3632 482.391 68.3632C497.391 68.3632 516.391 72.7632 525.791 90.3632C538.391 78.3632 556.791 68.3632 585.991 68.3632Z" fill="#1E1D23"/>
<path d="M374.395 110.363H325.395V135.163C325.395 146.563 329.795 152.363 343.795 152.363C354.595 152.363 360.595 152.363 374.395 150.363V189.363C362.995 191.363 348.795 192.363 332.995 192.363C295.795 192.363 277.395 180.963 277.395 154.963V110.363H253.195V70.3632H277.395V50.3632L325.395 38.3632V70.3632H374.395V110.363Z" fill="#1E1D23"/>
<path d="M199.255 70.3632H247.255V174.963C247.255 222.963 212.855 240.363 171.655 240.363C137.455 240.363 108.055 233.963 96.6547 230.963V191.963C110.455 194.563 136.855 200.363 162.855 200.363C186.255 200.363 198.855 194.763 199.255 164.363C188.855 176.963 171.855 184.363 147.655 184.363C110.655 184.363 84.0547 166.763 84.0547 126.363C84.0547 85.9632 110.655 68.3632 147.655 68.3632C171.855 68.3632 188.855 75.7632 199.255 88.3632V70.3632ZM165.655 144.363C191.055 144.363 199.255 139.963 199.255 126.363C199.255 112.763 191.055 108.363 165.655 108.363C140.255 108.363 132.055 112.763 132.055 126.363C132.055 139.963 140.255 144.363 165.655 144.363Z" fill="#1E1D23"/>
<path d="M30 30.3632H78V190.363H30V30.3632Z" fill="#1E1D23"/>
<path fill-rule="evenodd" clip-rule="evenodd" d="M350.391 110.363H374.395V70.3632H350.391C350.391 53.7946 363.822 40.3632 380.391 40.3632H428.391C434.163 40.3632 439.554 41.9932 444.129 44.8181C455.07 40.7457 467.675 38.3632 482.391 38.3632C494.629 38.3632 513.184 40.6634 529.426 51.2038C544.512 43.3589 563.08 38.3632 585.991 38.3632C599.653 38.3632 619.494 40.9581 636.577 53.6718C655.278 67.5903 665.591 89.7572 665.591 118.163V190.363C665.591 206.932 652.159 220.363 635.591 220.363H587.591C575.019 220.363 564.253 212.63 559.791 201.661C555.328 212.63 544.563 220.363 531.991 220.363H483.991C471.419 220.363 460.653 212.63 456.191 201.661C451.728 212.63 440.963 220.363 428.391 220.363H380.391C364.344 220.363 351.241 207.765 350.43 191.92C356.652 191.588 362.489 191.069 367.844 190.363C370.117 190.063 372.303 189.73 374.395 189.363V150.363C363.646 151.921 357.63 152.265 350.391 152.342V110.363ZM428.391 125.563C430.679 123.32 432.967 121.318 435.279 119.562C439.696 116.205 444.197 113.748 448.938 112.222C452.771 110.988 456.76 110.363 460.991 110.363C478.591 110.363 483.991 119.163 483.991 139.763V190.363H531.991V125.563C542.191 115.563 552.391 110.363 564.591 110.363C582.191 110.363 587.591 119.163 587.591 139.763V190.363H635.591V118.163C635.591 76.7632 606.991 68.3632 585.991 68.3632C572.127 68.3632 560.697 70.6174 551.167 74.2698C540.626 78.3099 532.408 84.0607 525.791 90.3632C522.222 83.6807 517.269 78.9012 511.676 75.5429C502.539 70.0562 491.695 68.3632 482.391 68.3632C472.952 68.3632 465.08 69.6171 458.391 71.652C447.139 75.0749 439.233 80.7074 432.839 86.2993C431.274 87.6673 429.801 89.0329 428.391 90.3632V70.3632H380.391V190.363H428.391V125.563Z" fill="url(#paint0_linear_13_14)"/>
<path fill-rule="evenodd" clip-rule="evenodd" d="M325.781 140.363C325.516 138.784 325.395 137.05 325.395 135.163V110.363H374.395V70.3632H325.395V38.3632L277.395 50.3632V70.3632H253.195V110.363H277.395V154.963C277.395 180.963 295.795 192.363 332.995 192.363C348.795 192.363 362.995 191.363 374.395 189.363V150.363C360.853 152.326 354.822 152.362 344.395 152.363C344.197 152.363 343.997 152.363 343.795 152.363C332.113 152.363 327.115 148.324 325.781 140.363ZM247.395 139.803C247.348 139.794 247.302 139.784 247.255 139.775V70.3632H223.195C223.195 55.2159 234.421 42.6906 249.007 40.6532C252.232 31.2312 260.04 23.7786 270.119 21.2589L318.119 9.25888C327.081 7.01832 336.576 9.03178 343.858 14.717C351.139 20.4022 355.395 29.1251 355.395 38.3632V40.3632H374.395C390.964 40.3632 404.395 53.7946 404.395 70.3632H380.391V190.363H404.379C403.913 204.499 393.599 216.452 379.579 218.912C365.925 221.307 349.878 222.363 332.995 222.363C312.441 222.363 291.36 219.425 274.729 208.458C255.607 195.847 247.395 176.172 247.395 154.963V139.803Z" fill="url(#paint1_linear_13_14)"/>
<path fill-rule="evenodd" clip-rule="evenodd" d="M66.6974 190.363C66.6691 190.895 66.6548 191.428 66.6548 191.963V230.963C66.6548 244.591 75.8406 256.507 89.02 259.975C102.002 263.392 134.082 270.363 171.655 270.363C195.784 270.363 222.034 265.373 242.947 249.632C265.276 232.824 277.255 206.991 277.255 174.963V110.363H253.195V70.3632H277.255C277.255 53.7946 263.823 40.3632 247.255 40.3632H199.255C194.061 40.3632 189.175 41.6832 184.915 44.006C173.484 40.1748 160.912 38.3632 147.655 38.3632C124.902 38.3632 101.197 43.7253 82.7091 59.2209C81.0672 60.5971 79.4977 62.0268 78.0001 63.5076V190.363H66.6974ZM96.6548 230.963C108.055 233.963 137.455 240.363 171.655 240.363C212.855 240.363 247.255 222.963 247.255 174.963V70.3632H199.255V88.3632C196.845 85.4431 194.08 82.8024 190.953 80.4683C185.034 76.0497 177.818 72.73 169.255 70.6952C162.822 69.1667 155.629 68.3632 147.655 68.3632C110.655 68.3632 84.0548 85.9632 84.0548 126.363C84.0548 141.29 87.6862 153.105 94.1319 162.069C96.1202 164.834 98.3762 167.328 100.876 169.559C112.206 179.667 128.543 184.363 147.655 184.363C153.081 184.363 158.146 183.991 162.855 183.272C174.28 181.527 183.614 177.737 190.953 172.258C194.08 169.924 196.845 167.283 199.255 164.363C199.229 166.355 199.15 168.24 199.019 170.024C197.157 195.473 184.722 200.363 162.855 200.363C157.771 200.363 152.672 200.141 147.655 199.765C140.384 199.22 133.286 198.35 126.655 197.361C117.163 195.945 108.629 194.284 101.921 192.978C100.011 192.607 98.2488 192.263 96.6548 191.963V230.963ZM197.821 118.33C195.266 112.609 189.053 109.764 177.271 108.777C173.876 108.493 170.02 108.363 165.655 108.363C140.255 108.363 132.055 112.763 132.055 126.363C132.055 139.963 140.255 144.363 165.655 144.363C170.02 144.363 173.876 144.233 177.271 143.949C189.053 142.963 195.266 140.118 197.821 134.396C198.814 132.173 199.255 129.515 199.255 126.363C199.255 123.211 198.814 120.553 197.821 118.33Z" fill="url(#paint2_linear_13_14)"/>
<path fill-rule="evenodd" clip-rule="evenodd" d="M0 30.3632C0 13.7946 13.4315 0.363159 30 0.363159H78C94.5685 0.363159 108 13.7946 108 30.3632V77.9018C93.1088 86.9834 84.0547 102.793 84.0547 126.363C84.0547 149.933 93.1088 165.743 108 174.824V190.363C108 191.631 107.921 192.881 107.769 194.108C105.697 193.713 103.742 193.333 101.921 192.978C100.011 192.607 98.2487 192.263 96.6547 191.963V213.859C91.5335 217.931 85.0508 220.363 78 220.363H30C13.4315 220.363 0 206.932 0 190.363V30.3632ZM30 30.3632V190.363H78V30.3632H30Z" fill="url(#paint3_linear_13_14)"/>
<defs>
<linearGradient id="paint0_linear_13_14" x1="233.244" y1="26.1869" x2="299.819" y2="281.461" gradientUnits="userSpaceOnUse">
<stop stop-color="#4DC9F0"/>
<stop offset="0.27" stop-color="#5939D5"/>
<stop offset="0.66" stop-color="#9611AA"/>
<stop offset="0.925" stop-color="#F72685"/>
</linearGradient>
<linearGradient id="paint1_linear_13_14" x1="233.244" y1="26.1869" x2="299.819" y2="281.461" gradientUnits="userSpaceOnUse">
<stop stop-color="#4DC9F0"/>
<stop offset="0.27" stop-color="#5939D5"/>
<stop offset="0.66" stop-color="#9611AA"/>
<stop offset="0.925" stop-color="#F72685"/>
</linearGradient>
<linearGradient id="paint2_linear_13_14" x1="233.244" y1="26.1869" x2="299.819" y2="281.461" gradientUnits="userSpaceOnUse">
<stop stop-color="#4DC9F0"/>
<stop offset="0.27" stop-color="#5939D5"/>
<stop offset="0.66" stop-color="#9611AA"/>
<stop offset="0.925" stop-color="#F72685"/>
</linearGradient>
<linearGradient id="paint3_linear_13_14" x1="233.244" y1="26.1869" x2="299.819" y2="281.461" gradientUnits="userSpaceOnUse">
<stop stop-color="#4DC9F0"/>
<stop offset="0.27" stop-color="#5939D5"/>
<stop offset="0.66" stop-color="#9611AA"/>
<stop offset="0.925" stop-color="#F72685"/>
</linearGradient>
</defs>
</svg>
