<svg width="614" height="241" viewBox="0 0 614 241" fill="none" xmlns="http://www.w3.org/2000/svg">
<mask id="path-1-outside-1_13_14" maskUnits="userSpaceOnUse" x="-26" y="-9.63684" width="666" height="270" fill="black">
<rect fill="white" x="-26" y="-9.63684" width="666" height="270"/>
<path d="M4 20.3632H52V180.363H4V20.3632ZM173.255 60.3632H221.255V164.963C221.255 212.963 186.855 230.363 145.655 230.363C111.455 230.363 82.0547 223.963 70.6547 220.963V181.963C84.4547 184.563 110.855 190.363 136.855 190.363C160.255 190.363 172.855 184.763 173.255 154.363C162.855 166.963 145.855 174.363 121.655 174.363C84.6547 174.363 58.0547 156.763 58.0547 116.363C58.0547 75.9632 84.6547 58.3632 121.655 58.3632C145.855 58.3632 162.855 65.7632 173.255 78.3631V60.3632ZM139.655 134.363C165.055 134.363 173.255 129.963 173.255 116.363C173.255 102.763 165.055 98.3632 139.655 98.3632C114.255 98.3632 106.055 102.763 106.055 116.363C106.055 129.963 114.255 134.363 139.655 134.363ZM348.395 100.363H299.395V125.163C299.395 136.563 303.795 142.363 317.795 142.363C328.595 142.363 334.595 142.363 348.395 140.363V179.363C336.995 181.363 322.795 182.363 306.995 182.363C269.795 182.363 251.395 170.963 251.395 144.963V100.363H227.195V60.3632H251.395V40.3631L299.395 28.3631V60.3632H348.395V100.363ZM559.991 58.3632C580.991 58.3632 609.591 66.7632 609.591 108.163V180.363H561.591V129.763C561.591 109.163 556.191 100.363 538.591 100.363C526.391 100.363 516.191 105.563 505.991 115.563V180.363H457.991V129.763C457.991 109.163 452.591 100.363 434.991 100.363C422.791 100.363 412.591 105.563 402.391 115.563V180.363H354.391V60.3632H402.391V80.3632C412.991 70.3632 427.191 58.3632 456.391 58.3632C471.391 58.3632 490.391 62.7632 499.791 80.3632C512.391 68.3632 530.791 58.3632 559.991 58.3632Z"/>
</mask>
<path d="M4 20.3632H52V180.363H4V20.3632ZM173.255 60.3632H221.255V164.963C221.255 212.963 186.855 230.363 145.655 230.363C111.455 230.363 82.0547 223.963 70.6547 220.963V181.963C84.4547 184.563 110.855 190.363 136.855 190.363C160.255 190.363 172.855 184.763 173.255 154.363C162.855 166.963 145.855 174.363 121.655 174.363C84.6547 174.363 58.0547 156.763 58.0547 116.363C58.0547 75.9632 84.6547 58.3632 121.655 58.3632C145.855 58.3632 162.855 65.7632 173.255 78.3631V60.3632ZM139.655 134.363C165.055 134.363 173.255 129.963 173.255 116.363C173.255 102.763 165.055 98.3632 139.655 98.3632C114.255 98.3632 106.055 102.763 106.055 116.363C106.055 129.963 114.255 134.363 139.655 134.363ZM348.395 100.363H299.395V125.163C299.395 136.563 303.795 142.363 317.795 142.363C328.595 142.363 334.595 142.363 348.395 140.363V179.363C336.995 181.363 322.795 182.363 306.995 182.363C269.795 182.363 251.395 170.963 251.395 144.963V100.363H227.195V60.3632H251.395V40.3631L299.395 28.3631V60.3632H348.395V100.363ZM559.991 58.3632C580.991 58.3632 609.591 66.7632 609.591 108.163V180.363H561.591V129.763C561.591 109.163 556.191 100.363 538.591 100.363C526.391 100.363 516.191 105.563 505.991 115.563V180.363H457.991V129.763C457.991 109.163 452.591 100.363 434.991 100.363C422.791 100.363 412.591 105.563 402.391 115.563V180.363H354.391V60.3632H402.391V80.3632C412.991 70.3632 427.191 58.3632 456.391 58.3632C471.391 58.3632 490.391 62.7632 499.791 80.3632C512.391 68.3632 530.791 58.3632 559.991 58.3632Z" fill="#1E1D23"/>
<path d="M4 20.3632V-9.63684C-12.5685 -9.63684 -26 3.79461 -26 20.3632H4ZM52 20.3632H82C82 3.79461 68.5685 -9.63684 52 -9.63684L52 20.3632ZM52 180.363V210.363C68.5685 210.363 82 196.932 82 180.363H52ZM4 180.363H-26C-26 196.932 -12.5685 210.363 4 210.363L4 180.363ZM4 50.3632H52V-9.63684H4V50.3632ZM22 20.3632V180.363H82V20.3632H22ZM52 150.363H4V210.363H52V150.363ZM34 180.363V20.3632H-26V180.363H34ZM173.255 60.3632V30.3632C156.686 30.3632 143.255 43.7946 143.255 60.3632H173.255ZM221.255 60.3632H251.255C251.255 43.7946 237.823 30.3632 221.255 30.3632V60.3632ZM70.6547 220.963H40.6547C40.6547 234.591 49.8405 246.507 63.0199 249.975L70.6547 220.963ZM70.6547 181.963L76.2091 152.482C67.4344 150.829 58.3793 153.17 51.5057 158.87C44.6322 164.569 40.6547 173.034 40.6547 181.963H70.6547ZM173.255 154.363L203.252 154.758C203.42 142.03 195.537 130.582 183.587 126.198C171.636 121.815 158.221 125.449 150.118 135.266L173.255 154.363ZM173.255 78.3631L150.118 97.4601C158.175 107.221 171.49 110.876 183.401 106.595C195.312 102.315 203.255 91.0196 203.255 78.3631H173.255ZM173.255 90.3632H221.255V30.3632H173.255V90.3632ZM191.255 60.3632V164.963H251.255V60.3632H191.255ZM191.255 164.963C191.255 180.935 186.033 187.803 180.863 191.695C174.275 196.653 162.725 200.363 145.655 200.363V260.363C169.784 260.363 196.034 255.373 216.947 239.632C239.276 222.824 251.255 196.991 251.255 164.963H191.255ZM145.655 200.363C114.828 200.363 88.1076 194.535 78.2895 191.951L63.0199 249.975C76.0018 253.392 108.082 260.363 145.655 260.363V200.363ZM100.655 220.963V181.963H40.6547V220.963H100.655ZM65.1002 211.444C77.6647 213.812 107.37 220.363 136.855 220.363V160.363C114.339 160.363 91.2446 155.315 76.2091 152.482L65.1002 211.444ZM136.855 220.363C149.035 220.363 168.037 219.417 183.096 206.633C199.253 192.915 203.015 172.799 203.252 154.758L143.257 153.968C143.181 159.741 142.521 162.449 142.234 163.31C142.07 163.802 142.488 162.401 144.264 160.893C145.885 159.517 146.976 159.476 145.82 159.734C144.443 160.042 141.766 160.363 136.855 160.363V220.363ZM150.118 135.266C147.007 139.036 139.741 144.363 121.655 144.363V204.363C151.968 204.363 178.703 194.891 196.391 173.46L150.118 135.266ZM121.655 144.363C107.407 144.363 99.3121 140.925 95.2503 137.521C92.0657 134.852 88.0547 129.522 88.0547 116.363H28.0547C28.0547 143.604 37.3436 167.275 56.709 183.505C75.1973 199.001 98.9022 204.363 121.655 204.363V144.363ZM88.0547 116.363C88.0547 103.204 92.0657 97.8745 95.2503 95.2054C99.3121 91.801 107.407 88.3632 121.655 88.3632V28.3632C98.9022 28.3632 75.1973 33.7253 56.709 49.2209C37.3436 65.4518 28.0547 89.122 28.0547 116.363H88.0547ZM121.655 88.3632C139.741 88.3632 147.007 93.6906 150.118 97.4601L196.391 59.2662C178.703 37.8357 151.968 28.3632 121.655 28.3632V88.3632ZM203.255 78.3631V60.3632H143.255V78.3631H203.255ZM139.655 164.363C152.19 164.363 167.597 163.632 180.15 156.906C187.598 152.914 194.155 146.815 198.395 138.358C202.359 130.451 203.255 122.547 203.255 116.363H143.255C143.255 116.979 143.125 114.725 144.758 111.468C145.605 109.779 146.758 108.164 148.166 106.764C149.545 105.392 150.867 104.526 151.81 104.021C153.448 103.143 153.835 103.411 151.345 103.769C148.992 104.108 145.299 104.363 139.655 104.363V164.363ZM203.255 116.363C203.255 110.179 202.359 102.275 198.395 94.3679C194.155 85.9116 187.598 79.8119 180.15 75.8206C167.597 69.094 152.19 68.3632 139.655 68.3632V128.363C145.299 128.363 148.992 128.618 151.345 128.957C153.835 129.315 153.448 129.583 151.81 128.706C150.867 128.201 149.545 127.334 148.166 125.963C146.758 124.563 145.605 122.947 144.758 121.258C143.125 118.001 143.255 115.747 143.255 116.363H203.255ZM139.655 68.3632C127.119 68.3632 111.712 69.094 99.1595 75.8206C91.7116 79.8119 85.1539 85.9116 80.9144 94.3679C76.9501 102.275 76.0547 110.179 76.0547 116.363H136.055C136.055 115.747 136.184 118.001 134.551 121.258C133.705 122.947 132.551 124.563 131.144 125.963C129.764 127.334 128.442 128.201 127.5 128.706C125.862 129.583 125.474 129.315 127.965 128.957C130.318 128.618 134.01 128.363 139.655 128.363V68.3632ZM76.0547 116.363C76.0547 122.547 76.9501 130.451 80.9144 138.358C85.1539 146.815 91.7116 152.914 99.1595 156.906C111.712 163.632 127.119 164.363 139.655 164.363V104.363C134.01 104.363 130.318 104.108 127.965 103.769C125.474 103.411 125.862 103.143 127.5 104.021C128.442 104.526 129.764 105.392 131.144 106.764C132.551 108.164 133.705 109.779 134.551 111.468C136.184 114.725 136.055 116.979 136.055 116.363H76.0547ZM348.395 100.363V130.363C364.964 130.363 378.395 116.932 378.395 100.363H348.395ZM299.395 100.363V70.3632C282.827 70.3632 269.395 83.7946 269.395 100.363H299.395ZM348.395 140.363H378.395C378.395 131.656 374.612 123.378 368.028 117.68C361.445 111.981 352.71 109.424 344.092 110.673L348.395 140.363ZM348.395 179.363L353.579 208.912C367.929 206.394 378.395 193.932 378.395 179.363H348.395ZM251.395 100.363H281.395C281.395 83.7946 267.964 70.3632 251.395 70.3632V100.363ZM227.195 100.363H197.195C197.195 116.932 210.627 130.363 227.195 130.363V100.363ZM227.195 60.3632V30.3632C210.627 30.3632 197.195 43.7946 197.195 60.3632H227.195ZM251.395 60.3632V90.3632C267.964 90.3632 281.395 76.9317 281.395 60.3632H251.395ZM251.395 40.3631L244.119 11.2589C230.764 14.5976 221.395 26.5971 221.395 40.3631H251.395ZM299.395 28.3631H329.395C329.395 19.1251 325.139 10.4022 317.858 4.71699C310.576 -0.968228 301.081 -2.98168 292.119 -0.741126L299.395 28.3631ZM299.395 60.3632H269.395C269.395 76.9317 282.827 90.3632 299.395 90.3632V60.3632ZM348.395 60.3632H378.395C378.395 43.7946 364.964 30.3632 348.395 30.3632V60.3632ZM348.395 70.3632H299.395V130.363H348.395V70.3632ZM269.395 100.363V125.163H329.395V100.363H269.395ZM269.395 125.163C269.395 133.687 270.846 147.867 282.04 159.159C293.216 170.432 307.668 172.363 317.795 172.363V112.363C313.923 112.363 319.175 111.394 324.651 116.918C330.144 122.459 329.395 128.04 329.395 125.163H269.395ZM317.795 172.363C329.255 172.363 336.867 172.347 352.698 170.053L344.092 110.673C332.324 112.379 327.936 112.363 317.795 112.363V172.363ZM318.395 140.363V179.363H378.395V140.363H318.395ZM343.211 149.814C334.066 151.419 321.712 152.363 306.995 152.363V212.363C323.878 212.363 339.925 211.307 353.579 208.912L343.211 149.814ZM306.995 152.363C290.349 152.363 283.63 149.601 281.761 148.369C281.319 148.077 281.61 148.204 281.812 148.617C281.919 148.837 281.395 147.95 281.395 144.963H221.395C221.395 166.172 229.607 185.847 248.729 198.458C265.36 209.425 286.441 212.363 306.995 212.363V152.363ZM281.395 144.963V100.363H221.395V144.963H281.395ZM251.395 70.3632H227.195V130.363H251.395V70.3632ZM257.195 100.363V60.3632H197.195V100.363H257.195ZM227.195 90.3632H251.395V30.3632H227.195V90.3632ZM281.395 60.3632V40.3631H221.395V60.3632H281.395ZM258.671 69.4674L306.671 57.4674L292.119 -0.741126L244.119 11.2589L258.671 69.4674ZM269.395 28.3631V60.3632H329.395V28.3631H269.395ZM299.395 90.3632H348.395V30.3632H299.395V90.3632ZM318.395 60.3632V100.363H378.395V60.3632H318.395ZM609.591 180.363V210.363C626.159 210.363 639.591 196.932 639.591 180.363H609.591ZM561.591 180.363H531.591C531.591 196.932 545.022 210.363 561.591 210.363V180.363ZM505.991 115.563L484.988 94.141C479.233 99.7832 475.991 107.504 475.991 115.563H505.991ZM505.991 180.363V210.363C522.559 210.363 535.991 196.932 535.991 180.363H505.991ZM457.991 180.363H427.991C427.991 196.932 441.422 210.363 457.991 210.363V180.363ZM402.391 115.563L381.388 94.141C375.633 99.7832 372.391 107.504 372.391 115.563H402.391ZM402.391 180.363V210.363C418.959 210.363 432.391 196.932 432.391 180.363H402.391ZM354.391 180.363H324.391C324.391 196.932 337.822 210.363 354.391 210.363V180.363ZM354.391 60.3632V30.3632C337.822 30.3632 324.391 43.7946 324.391 60.3632H354.391ZM402.391 60.3632H432.391C432.391 43.7946 418.959 30.3632 402.391 30.3632V60.3632ZM402.391 80.3632H372.391C372.391 92.3382 379.512 103.166 390.508 107.909C401.503 112.653 414.267 110.402 422.977 102.185L402.391 80.3632ZM499.791 80.3632L473.328 94.4964C477.744 102.764 485.769 108.492 495.022 109.982C504.276 111.471 513.693 108.551 520.48 102.087L499.791 80.3632ZM559.991 88.3632C567.328 88.3632 572.287 89.9683 574.754 91.8045C575.706 92.513 576.644 93.4891 577.491 95.3479C578.403 97.3515 579.591 101.257 579.591 108.163H639.591C639.591 79.7572 629.278 57.5903 610.577 43.6718C593.494 30.958 573.653 28.3632 559.991 28.3632V88.3632ZM579.591 108.163V180.363H639.591V108.163H579.591ZM609.591 150.363H561.591V210.363H609.591V150.363ZM591.591 180.363V129.763H531.591V180.363H591.591ZM591.591 129.763C591.591 118.564 590.509 102.544 580.766 89.4392C569.187 73.8639 552.043 70.3632 538.591 70.3632V130.363C540.698 130.363 540.389 130.656 538.838 130.06C537.984 129.731 536.858 129.172 535.656 128.274C534.441 127.367 533.416 126.314 532.615 125.237C531.057 123.141 530.925 121.751 531.112 122.642C531.309 123.583 531.591 125.737 531.591 129.763H591.591ZM538.591 70.3632C516.246 70.3632 498.915 80.4875 484.988 94.141L526.993 136.985C533.466 130.639 536.535 130.363 538.591 130.363V70.3632ZM475.991 115.563V180.363H535.991V115.563H475.991ZM505.991 150.363H457.991V210.363H505.991V150.363ZM487.991 180.363V129.763H427.991V180.363H487.991ZM487.991 129.763C487.991 118.564 486.909 102.544 477.166 89.4392C465.587 73.8639 448.443 70.3632 434.991 70.3632V130.363C437.098 130.363 436.789 130.656 435.238 130.06C434.384 129.731 433.258 129.172 432.056 128.274C430.841 127.367 429.816 126.314 429.015 125.237C427.457 123.141 427.325 121.751 427.512 122.642C427.709 123.583 427.991 125.737 427.991 129.763H487.991ZM434.991 70.3632C412.646 70.3632 395.315 80.4875 381.388 94.141L423.393 136.985C429.866 130.639 432.935 130.363 434.991 130.363V70.3632ZM372.391 115.563V180.363H432.391V115.563H372.391ZM402.391 150.363H354.391V210.363H402.391V150.363ZM384.391 180.363V60.3632H324.391V180.363H384.391ZM354.391 90.3632H402.391V30.3632H354.391V90.3632ZM372.391 60.3632V80.3632H432.391V60.3632H372.391ZM422.977 102.185C427.783 97.6516 431.368 94.6714 435.801 92.4617C439.935 90.4007 446.168 88.3632 456.391 88.3632V28.3632C437.413 28.3632 421.947 32.3256 409.031 38.7646C396.413 45.055 387.599 53.0748 381.804 58.5414L422.977 102.185ZM456.391 88.3632C461.258 88.3632 465.49 89.1183 468.501 90.3922C471.073 91.4803 472.382 92.7252 473.328 94.4964L526.253 66.2299C508.931 33.7969 475.201 28.3632 456.391 28.3632V88.3632ZM520.48 102.087C527.695 95.2165 538.756 88.3632 559.991 88.3632V28.3632C522.825 28.3632 497.087 41.5098 479.101 58.639L520.48 102.087Z" fill="url(#paint0_linear_13_14)" mask="url(#path-1-outside-1_13_14)"/>
<defs>
<linearGradient id="paint0_linear_13_14" x1="207.244" y1="16.1869" x2="273.819" y2="271.461" gradientUnits="userSpaceOnUse">
<stop stop-color="#4DC9F0"/>
<stop offset="0.27" stop-color="#5939D5"/>
<stop offset="0.66" stop-color="#9611AA"/>
<stop offset="0.925" stop-color="#F72685"/>
</linearGradient>
</defs>
</svg>
