<svg width="320" height="320" viewBox="0 0 320 320" fill="none" xmlns="http://www.w3.org/2000/svg">
<path d="M138.841 187.782L139.229 188.897C139.349 189.256 139.532 189.739 139.687 190.245L140.245 192.026C140.464 192.707 140.638 193.394 140.869 194.19C141.089 194.976 141.35 195.855 141.55 196.718L142.252 199.56C142.482 200.55 142.67 201.543 142.9 202.625C143.884 207.297 144.54 212.033 144.863 216.797C145.055 219.333 145.092 221.857 145.069 224.449C144.995 226.989 144.854 229.591 144.539 232.127C144.228 234.65 143.768 237.151 143.159 239.619C142.549 242.04 141.77 244.416 140.827 246.728C138.948 251.311 136.379 255.52 133.097 259.21C131.472 261.073 129.589 262.721 127.722 264.43C125.829 266.113 123.894 267.795 121.877 269.42C117.799 272.747 113.548 275.857 109.144 278.739C104.696 281.669 100.029 284.365 95.2508 286.825C92.8577 288.044 90.435 289.204 87.9848 290.304C85.5429 291.386 83.0749 292.408 80.5831 293.369C75.6136 295.266 70.6152 296.893 65.6683 298.215C60.8923 299.5 56.0558 300.548 51.1765 301.357C41.8443 302.923 33.3077 303.422 26.9749 303.39L24.7112 303.36L22.6795 303.296L19.3928 303.108L17.2879 302.92L16.5447 302.833L16.5032 302.086L16.444 299.974L16.4568 296.682L16.517 294.65L16.6252 292.389C16.9804 286.066 17.9982 277.575 20.1316 268.356C21.2366 263.535 22.5782 258.772 24.1515 254.083C25.7732 249.226 27.7013 244.336 29.898 239.492C31.01 237.063 32.1809 234.662 33.4098 232.291C34.6558 229.921 35.9581 227.566 37.3255 225.251C40.0719 220.632 43.0485 216.138 46.244 211.877C49.3888 207.656 52.7529 203.604 56.3224 199.736C58.0681 197.823 59.8642 195.993 61.6596 194.207C63.4795 192.447 65.2394 190.668 67.1979 189.16C71.082 186.11 75.44 183.803 80.129 182.206C82.4942 181.406 84.9128 180.773 87.3668 180.313C89.8669 179.856 92.3921 179.548 94.9288 179.392C97.4797 179.232 100.086 179.251 102.625 179.332C105.214 179.467 107.73 179.658 110.25 180.004C114.986 180.617 119.673 181.561 124.276 182.829C125.342 183.124 126.321 183.373 127.296 183.662L130.09 184.536C130.939 184.789 131.801 185.103 132.571 185.37C133.353 185.649 134.027 185.865 134.693 186.125L136.437 186.791C136.933 186.976 137.403 187.188 137.755 187.33C138.471 187.627 138.841 187.782 138.841 187.782Z" fill="url(#paint0_linear_1_96)"/>
<path d="M74.4254 108.06L39.2348 143.251C36.8025 145.683 38.5253 149.842 41.965 149.842H71.5413C72.5652 149.842 73.5475 150.249 74.2715 150.973L93.4756 170.177L124.666 106.93H77.1556C76.6486 106.93 76.1464 107.029 75.678 107.223C75.2095 107.417 74.7838 107.702 74.4254 108.06Z" fill="url(#paint1_linear_1_96)"/>
<path d="M154.567 216.738L173.771 235.942C174.495 236.666 174.902 237.648 174.902 238.672V268.248C174.902 271.688 179.061 273.411 181.493 270.979L216.683 235.788C217.407 235.064 217.814 234.082 217.814 233.058V185.547L154.567 216.738Z" fill="url(#paint2_linear_1_96)"/>
<path d="M293.675 28.7367L293.712 29.0458C293.735 29.2491 293.78 29.5626 293.812 29.9494C293.875 30.7225 294.02 31.9202 294.088 33.3625C294.307 36.3296 294.455 40.5065 294.352 45.5317C294.251 50.5598 293.897 56.4333 293.129 62.8091C292.957 64.4232 292.712 66.0213 292.475 67.682C292.256 69.3596 291.943 70.9985 291.657 72.7159C291.069 76.1358 290.337 79.6158 289.491 83.1658C287.729 90.5333 285.491 97.7788 282.791 104.857C280.007 112.147 276.665 119.428 272.748 126.501C268.826 133.568 264.363 140.462 259.376 147.014C254.395 153.573 248.896 159.797 242.997 165.62C237.097 171.443 230.804 176.872 224.193 181.8C222.539 183.031 220.876 184.242 219.176 185.4C217.494 186.577 215.775 187.703 214.063 188.819C210.621 191.032 207.106 193.104 203.555 195.048C196.565 198.873 189.322 202.217 181.878 205.058C174.804 207.751 167.568 209.997 160.212 211.783C156.67 212.637 153.209 213.388 149.795 213.981L147.281 214.433C146.449 214.576 145.604 214.693 144.783 214.822L142.35 215.193L139.936 215.501C133.595 216.303 127.76 216.696 122.769 216.833C117.783 216.976 113.63 216.853 110.696 216.667C109.269 216.613 108.079 216.476 107.315 216.422C106.932 216.394 106.621 216.352 106.42 216.331L106.114 216.297C103.793 216.039 102.033 214.197 101.785 211.969L101.752 211.663C101.731 211.462 101.689 211.151 101.661 210.768C101.607 210.005 101.47 208.815 101.416 207.387C101.231 204.454 101.108 200.301 101.25 195.315C101.387 190.323 101.78 184.489 102.582 178.147L102.89 175.734L103.261 173.3C103.389 172.48 103.507 171.635 103.649 170.802L104.102 168.289C104.695 164.875 105.446 161.413 106.3 157.871C108.085 150.515 110.331 143.279 113.025 136.205C115.866 128.761 119.211 121.519 123.035 114.528C124.979 110.977 127.051 107.462 129.264 104.021C130.379 102.308 131.505 100.59 132.683 98.9077C133.841 97.2068 135.052 95.5441 136.283 93.8907C141.211 87.2791 146.64 80.9858 152.463 75.0866C158.286 69.1869 164.51 63.688 171.068 58.7074C177.621 53.7206 184.514 49.2578 191.582 45.3352C198.655 41.4184 205.937 38.0766 213.226 35.292C220.304 32.5927 227.55 30.3548 234.917 28.5925C238.467 27.7467 241.947 27.0139 245.367 26.4267C247.084 26.1408 248.723 25.8278 250.401 25.608C252.062 25.3711 253.659 25.1256 255.274 24.9543C261.65 24.1865 267.523 23.8323 272.551 23.7318C277.576 23.6285 281.753 23.7755 284.72 23.9953C286.163 24.0638 287.36 24.2084 288.133 24.2715C288.52 24.3035 288.834 24.3477 289.037 24.371L289.346 24.4083C291.661 24.6874 293.408 26.5213 293.675 28.7367Z" fill="#1E1D23" stroke="url(#paint3_linear_1_96)" stroke-width="24.2647"/>
<path d="M163.313 161.773C163.727 163.752 163.854 166.158 163.071 168.245C162.685 169.294 161.978 170.166 161.311 171.222L159.094 174.581L153.773 182.63C151.66 185.784 149.529 188.926 147.38 192.054C144.986 195.535 142.563 198.995 140.112 202.435L136.207 207.85L132.151 213.341C129.399 217.013 126.583 220.723 123.721 224.384C120.887 228.031 118.017 231.651 115.112 235.241C112.247 238.796 109.437 242.304 106.673 245.653L102.617 250.601C101.273 252.199 100.051 253.857 98.6338 255.238C97.2259 256.627 95.6044 257.718 93.7441 258.472C91.8997 259.242 89.8827 259.743 87.9324 260.211C84.2563 261.077 80.5412 261.76 76.8002 262.258C75.0715 262.489 73.4186 262.668 71.8577 262.801C70.305 262.943 68.8034 262.994 67.4871 263.082C66.1608 263.16 64.8952 263.145 63.8374 263.177C62.7637 263.192 61.7974 263.151 61.0408 263.145C60.2683 263.122 59.6512 263.079 59.2474 263.063L58.6136 263.015L58.5747 262.368C58.5635 261.956 58.5286 261.325 58.5161 260.537C58.5196 259.765 58.4904 258.779 58.5184 257.682C58.5618 256.603 58.563 255.311 58.655 253.959C58.7571 252.617 58.8258 251.085 58.9828 249.502C59.1316 247.911 59.3273 246.226 59.5747 244.464C60.1074 240.653 60.8214 236.869 61.714 233.128C62.1959 231.144 62.7114 229.092 63.4882 227.218C64.2491 225.328 65.3379 223.687 66.7157 222.267C68.0852 220.838 69.7242 219.61 71.3068 218.259L76.204 214.179C79.5178 211.398 82.9888 208.573 86.5066 205.692C90.0185 202.805 93.6155 199.903 97.2474 197.037C100.869 194.159 104.537 191.331 108.168 188.567L113.596 184.494L118.949 180.574C122.348 178.114 125.768 175.683 129.207 173.281C132.492 170.987 135.621 168.843 138.516 166.871L146.467 161.537L149.784 159.315C150.826 158.647 151.689 157.936 152.722 157.555C154.777 156.782 157.132 156.94 159.066 157.386C160 157.575 160.837 157.846 161.42 158.047C162.887 158.608 163.036 160.253 163.313 161.773Z" fill="url(#paint4_linear_1_96)"/>
<defs>
<linearGradient id="paint0_linear_1_96" x1="92.1489" y1="220.61" x2="-5.57926" y2="337.687" gradientUnits="userSpaceOnUse">
<stop stop-color="#FFB12E"/>
<stop offset="1" stop-color="#F54A31"/>
</linearGradient>
<linearGradient id="paint1_linear_1_96" x1="151.49" y1="41.101" x2="235.86" y2="128.037" gradientUnits="userSpaceOnUse">
<stop stop-color="#4CC9F0"/>
<stop offset="0.28684" stop-color="#4361EE"/>
<stop offset="0.524848" stop-color="#7209B7"/>
<stop offset="0.83892" stop-color="#F72585"/>
</linearGradient>
<linearGradient id="paint2_linear_1_96" x1="190.766" y1="145.518" x2="238.349" y2="247.85" gradientUnits="userSpaceOnUse">
<stop stop-color="#4CC9F0"/>
<stop offset="0.28684" stop-color="#4361EE"/>
<stop offset="0.524848" stop-color="#7209B7"/>
<stop offset="0.83892" stop-color="#F72585"/>
</linearGradient>
<linearGradient id="paint3_linear_1_96" x1="175.758" y1="48.7646" x2="266.172" y2="197.951" gradientUnits="userSpaceOnUse">
<stop stop-color="#4CC9F0"/>
<stop offset="0.28684" stop-color="#4361EE"/>
<stop offset="0.524848" stop-color="#7209B7"/>
<stop offset="0.83892" stop-color="#F72585"/>
</linearGradient>
<linearGradient id="paint4_linear_1_96" x1="126.263" y1="138.493" x2="168.486" y2="247.763" gradientUnits="userSpaceOnUse">
<stop stop-color="#4CC9F0"/>
<stop offset="0.28684" stop-color="#4361EE"/>
<stop offset="0.524848" stop-color="#7209B7"/>
<stop offset="0.83892" stop-color="#F72585"/>
</linearGradient>
</defs>
</svg>
