<svg width="290" height="291" viewBox="0 0 290 291" fill="none" xmlns="http://www.w3.org/2000/svg">
<rect y="0.706177" width="290" height="290" rx="145" fill="#1E1D23"/>
<path fill-rule="evenodd" clip-rule="evenodd" d="M145 28.7062C80.3827 28.7062 28 81.0889 28 145.706C28 210.324 80.3827 262.706 145 262.706C209.617 262.706 262 210.324 262 145.706C262 81.0889 209.617 28.7062 145 28.7062ZM0 145.706C0 65.6249 64.9187 0.706177 145 0.706177C225.081 0.706177 290 65.6249 290 145.706C290 225.787 225.081 290.706 145 290.706C64.9187 290.706 0 225.787 0 145.706Z" fill="#1E1D23"/>
<path fill-rule="evenodd" clip-rule="evenodd" d="M145 28.7062C80.3827 28.7062 28 81.0889 28 145.706C28 210.324 80.3827 262.706 145 262.706C209.617 262.706 262 210.324 262 145.706C262 81.0889 209.617 28.7062 145 28.7062ZM0 145.706C0 65.6249 64.9187 0.706177 145 0.706177C225.081 0.706177 290 65.6249 290 145.706C290 225.787 225.081 290.706 145 290.706C64.9187 290.706 0 225.787 0 145.706Z" fill="url(#paint0_linear_1_117)"/>
<path fill-rule="evenodd" clip-rule="evenodd" d="M116.84 201.36C125.638 205.539 135.258 207.707 145 207.707C154.742 207.707 164.362 205.539 173.16 201.36C181.958 197.182 189.713 191.096 195.859 183.544C200.739 177.547 199.834 168.729 193.837 163.849C187.84 158.968 179.022 159.874 174.142 165.871C170.627 170.189 166.189 173.674 161.147 176.068C156.105 178.463 150.588 179.707 145 179.707C139.412 179.707 133.896 178.463 128.854 176.068C123.812 173.673 119.373 170.188 115.859 165.87C110.979 159.873 102.161 158.968 96.1635 163.848C90.1664 168.728 89.2611 177.546 94.1414 183.543C100.287 191.095 108.042 197.181 116.84 201.36Z" fill="#1E1D23"/>
<path fill-rule="evenodd" clip-rule="evenodd" d="M116.84 201.36C125.638 205.539 135.258 207.707 145 207.707C154.742 207.707 164.362 205.539 173.16 201.36C181.958 197.182 189.713 191.096 195.859 183.544C200.739 177.547 199.834 168.729 193.837 163.849C187.84 158.968 179.022 159.874 174.142 165.871C170.627 170.189 166.189 173.674 161.147 176.068C156.105 178.463 150.588 179.707 145 179.707C139.412 179.707 133.896 178.463 128.854 176.068C123.812 173.673 119.373 170.188 115.859 165.87C110.979 159.873 102.161 158.968 96.1635 163.848C90.1664 168.728 89.2611 177.546 94.1414 183.543C100.287 191.095 108.042 197.181 116.84 201.36Z" fill="#F4F4F4"/>
<path d="M95.6145 134.949C105.967 134.949 114.359 126.557 114.359 116.205C114.359 105.853 105.967 97.4606 95.6145 97.4606C85.2622 97.4606 76.8701 105.853 76.8701 116.205C76.8701 126.557 85.2622 134.949 95.6145 134.949Z" fill="#1E1D23"/>
<path d="M95.6145 134.949C105.967 134.949 114.359 126.557 114.359 116.205C114.359 105.853 105.967 97.4606 95.6145 97.4606C85.2622 97.4606 76.8701 105.853 76.8701 116.205C76.8701 126.557 85.2622 134.949 95.6145 134.949Z" fill="#F4F4F4"/>
<path d="M193.864 134.949C204.217 134.949 212.609 126.557 212.609 116.205C212.609 105.853 204.217 97.4606 193.864 97.4606C183.512 97.4606 175.12 105.853 175.12 116.205C175.12 126.557 183.512 134.949 193.864 134.949Z" fill="#1E1D23"/>
<path d="M193.864 134.949C204.217 134.949 212.609 126.557 212.609 116.205C212.609 105.853 204.217 97.4606 193.864 97.4606C183.512 97.4606 175.12 105.853 175.12 116.205C175.12 126.557 183.512 134.949 193.864 134.949Z" fill="#F4F4F4"/>
<defs>
<linearGradient id="paint0_linear_1_117" x1="163.692" y1="35.3009" x2="280.663" y2="247.02" gradientUnits="userSpaceOnUse">
<stop stop-color="#4CC9F0"/>
<stop offset="0.28684" stop-color="#4361EE"/>
<stop offset="0.524848" stop-color="#7209B7"/>
<stop offset="0.83892" stop-color="#F72585"/>
</linearGradient>
</defs>
</svg>
