<svg width="296" height="314" viewBox="0 0 296 314" fill="none" xmlns="http://www.w3.org/2000/svg">
<path d="M92.0615 119.756L22.1446 273.32C19.0921 277.232 31.075 291.4 35.1738 289.704C39.2729 288.008 169.211 233.609 194.629 222.324L194.581 222.269C195.475 221.843 196.297 221.326 196.985 220.632C206.492 211.125 191.075 180.297 162.56 151.776C155.302 144.52 102.785 96.1512 92.0615 119.756Z" fill="#323038"/>
<path fill-rule="evenodd" clip-rule="evenodd" d="M174.02 231.225C129.048 250.423 38.5836 288.293 35.1741 289.704C31.0753 291.4 19.0924 277.232 22.1449 273.32L92.0618 119.756C102.785 96.1511 155.302 144.52 162.561 151.776C189.616 178.838 204.88 207.976 198.25 219.008C198.206 219.082 198.161 219.155 198.115 219.227C197.787 219.737 197.411 220.206 196.985 220.632C196.361 221.262 195.626 221.746 194.827 222.149C194.752 222.186 194.677 222.223 194.601 222.259C194.594 222.263 194.588 222.266 194.581 222.269L194.63 222.324C194.624 222.327 194.617 222.329 194.611 222.332C194.545 222.362 194.477 222.391 194.409 222.421C190.107 224.329 182.963 227.408 174.02 231.225ZM220.798 222.421C219.585 231.225 83.1127 291.461 43.6216 312.484C36.1448 315.577 25.129 310.315 18.7943 305.902C15.1061 303.333 11.9167 300.094 9.48208 297.12C7.07663 294.182 4.39991 290.274 2.58726 285.847C1.69225 283.66 0.602469 280.376 0.376442 276.438C0.189071 273.174 0.561429 268.285 3.24412 263.384L72.652 110.938C72.653 110.936 72.6541 110.934 72.6551 110.931C72.6565 110.928 72.6579 110.925 72.6593 110.922C76.1294 103.294 82.1716 97.155 90.4317 94.0787C97.9677 91.2721 105.317 91.7704 110.821 92.8876C121.488 95.0527 132.077 100.991 140.273 106.347C157.342 117.501 173.448 132.515 177.634 136.7L177.637 136.703C193.063 152.133 205.594 168.789 213.099 183.8C216.799 191.201 219.843 199.315 220.798 207.363C221.203 210.786 222.01 213.618 220.798 222.421Z" fill="#1E1D23"/>
<path fill-rule="evenodd" clip-rule="evenodd" d="M174.02 231.225C129.048 250.423 38.5836 288.293 35.1741 289.704C31.0753 291.4 19.0924 277.232 22.1449 273.32L92.0618 119.756C102.785 96.1511 155.302 144.52 162.561 151.776C189.616 178.838 204.88 207.976 198.25 219.008C198.206 219.082 198.161 219.155 198.115 219.227C197.787 219.737 197.411 220.206 196.985 220.632C196.361 221.262 195.626 221.746 194.827 222.149C194.752 222.186 194.677 222.223 194.601 222.259C194.594 222.263 194.588 222.266 194.581 222.269L194.63 222.324C194.624 222.327 194.617 222.329 194.611 222.332C194.545 222.362 194.477 222.391 194.409 222.421C190.107 224.329 182.963 227.408 174.02 231.225ZM220.798 222.421C219.585 231.225 83.1127 291.461 43.6216 312.484C36.1448 315.577 25.129 310.315 18.7943 305.902C15.1061 303.333 11.9167 300.094 9.48208 297.12C7.07663 294.182 4.39991 290.274 2.58726 285.847C1.69225 283.66 0.602469 280.376 0.376442 276.438C0.189071 273.174 0.561429 268.285 3.24412 263.384L72.652 110.938C72.653 110.936 72.6541 110.934 72.6551 110.931C72.6565 110.928 72.6579 110.925 72.6593 110.922C76.1294 103.294 82.1716 97.155 90.4317 94.0787C97.9677 91.2721 105.317 91.7704 110.821 92.8876C121.488 95.0527 132.077 100.991 140.273 106.347C157.342 117.501 173.448 132.515 177.634 136.7L177.637 136.703C193.063 152.133 205.594 168.789 213.099 183.8C216.799 191.201 219.843 199.315 220.798 207.363C221.203 210.786 222.01 213.618 220.798 222.421Z" fill="url(#paint0_linear_1_109)"/>
<path d="M162.992 151.302C191.416 179.737 207.198 210.048 198.227 219.007C189.261 227.978 158.951 212.202 130.509 183.779C102.08 155.343 86.3038 125.021 95.2691 116.055C104.24 107.09 134.551 122.866 162.992 151.302Z" fill="#1E1D23"/>
<path d="M181.961 103.564C181.29 104.101 180.517 104.501 179.688 104.741C178.858 104.98 177.989 105.055 177.13 104.96C171.418 104.35 166.614 102.39 163.251 99.2934C159.69 96.0154 157.933 91.6146 158.413 87.2072C159.256 79.47 167.127 72.3689 180.546 73.7969C185.765 74.3486 188.095 72.6934 188.174 71.9015C188.266 71.1161 186.351 69.0066 181.132 68.4484C175.419 67.8382 170.615 65.8779 167.245 62.7817C163.685 59.5038 161.921 55.1029 162.408 50.6956C163.264 42.9584 171.128 35.8573 184.534 37.2918C188.338 37.6942 190.345 36.9218 191.194 36.422C191.872 36.013 192.142 35.6236 192.168 35.3964C192.247 34.611 190.359 32.5014 185.126 31.9432C184.267 31.8527 183.434 31.5956 182.675 31.1868C181.916 30.778 181.247 30.2254 180.705 29.5609C180.163 28.8963 179.76 28.1328 179.518 27.3141C179.276 26.4954 179.201 25.6377 179.296 24.7902C179.387 23.9425 179.646 23.121 180.06 22.3727C180.474 21.6244 181.034 20.9641 181.707 20.4297C182.38 19.8954 183.154 19.4974 183.984 19.2588C184.813 19.0202 185.682 18.9455 186.541 19.0392C199.947 20.4607 206.107 29.0482 205.258 36.7919C204.403 44.5422 196.538 51.6303 183.119 50.2088C179.315 49.7998 177.328 50.5787 176.472 51.0785C175.794 51.481 175.518 51.8769 175.492 52.0976C175.406 52.8895 177.308 54.9926 182.54 55.5508C195.946 56.9788 202.106 65.5599 201.257 73.3036C200.408 81.0408 192.543 88.1419 179.131 86.7074C175.327 86.305 173.326 87.0839 172.471 87.5772C171.786 87.9926 171.523 88.3821 171.497 88.6028C171.411 89.3882 173.313 91.4977 178.539 92.056C179.833 92.1937 181.056 92.7068 182.055 93.5303C183.053 94.3539 183.781 95.4509 184.148 96.6827C184.514 97.9145 184.502 99.2257 184.113 100.451C183.723 101.676 182.975 102.759 181.961 103.564Z" fill="#4361EE"/>
<path d="M242.894 150.069C255.427 146.598 264.073 152.082 266.131 159.281C268.189 166.473 263.729 175.578 251.203 179.037C246.311 180.383 244.844 182.676 245.041 183.406C245.257 184.141 247.741 185.35 252.619 183.998C265.146 180.539 273.792 186.023 275.85 193.215C277.921 200.413 273.449 209.506 260.915 212.971C256.03 214.318 254.557 216.617 254.773 217.347C254.982 218.076 257.46 219.285 262.345 217.939C263.155 217.693 264.008 217.609 264.852 217.691C265.696 217.774 266.514 218.022 267.259 218.42C268.004 218.818 268.66 219.358 269.189 220.009C269.718 220.66 270.108 221.408 270.337 222.21C270.566 223.011 270.629 223.849 270.523 224.675C270.417 225.5 270.143 226.297 269.717 227.017C269.292 227.737 268.724 228.366 268.047 228.868C267.37 229.369 266.597 229.732 265.775 229.936C253.255 233.395 244.603 227.923 242.532 220.718C240.474 213.526 244.939 204.433 257.479 200.968C262.37 199.616 263.837 197.329 263.621 196.593C263.418 195.864 260.941 194.649 256.062 195.995C243.523 199.46 234.884 193.988 232.819 186.777C230.755 179.585 235.22 170.492 247.753 167.021C252.632 165.681 254.099 163.375 253.896 162.652C253.68 161.917 251.209 160.708 246.324 162.054C245.508 162.324 244.644 162.428 243.785 162.36C242.926 162.292 242.09 162.053 241.329 161.658C240.567 161.263 239.895 160.721 239.354 160.063C238.812 159.405 238.413 158.647 238.18 157.833C237.947 157.019 237.886 156.167 237.999 155.329C238.112 154.491 238.398 153.685 238.839 152.958C239.28 152.232 239.866 151.602 240.564 151.105C241.261 150.608 242.054 150.256 242.894 150.069Z" fill="#F12980"/>
<path d="M202.606 134C201.307 133.998 200.041 133.598 198.981 132.855C197.922 132.113 197.121 131.063 196.691 129.852C196.26 128.641 196.22 127.327 196.576 126.093C196.932 124.858 197.667 123.763 198.679 122.959C200.047 121.874 232.667 96.5545 278.767 103.07C279.601 103.163 280.408 103.421 281.139 103.828C281.871 104.235 282.512 104.783 283.025 105.439C283.539 106.095 283.914 106.847 284.128 107.649C284.342 108.451 284.391 109.287 284.272 110.108C284.153 110.929 283.869 111.719 283.436 112.429C283.003 113.14 282.43 113.757 281.751 114.245C281.072 114.733 280.301 115.081 279.484 115.269C278.666 115.457 277.819 115.481 276.992 115.339C236.261 109.623 206.815 132.413 206.527 132.642C205.414 133.522 204.031 134.001 202.606 134Z" fill="#7209B7"/>
<path d="M83.6537 81C82.6865 81.0001 81.7327 80.803 80.8684 80.4245C80.0041 80.0461 79.2532 79.4967 78.6757 78.8203C78.0982 78.1438 77.71 77.359 77.5422 76.5286C77.3744 75.6981 77.4315 74.8449 77.7091 74.0371C84.7396 53.6245 91.1123 21.0498 83.2814 12.5558C82.4064 11.5928 81.0847 10.646 78.0566 10.8462C72.2362 11.2357 72.7884 21.9425 72.7946 22.0507C72.8735 22.7674 72.7874 23.4907 72.5415 24.178C72.2955 24.8654 71.8947 25.5031 71.3625 26.0536C70.8303 26.6042 70.1774 27.0566 69.442 27.3843C68.7067 27.712 67.9037 27.9085 67.0802 27.9621C66.2567 28.0158 65.4291 27.9256 64.6461 27.6968C63.863 27.468 63.1403 27.1052 62.5201 26.6297C61.9 26.1542 61.3949 25.5756 61.0346 24.9277C60.6742 24.2798 60.4658 23.5758 60.4216 22.8568C59.7824 15.3961 62.4444 1.02669 77.1258 0.0582676C83.6785 -0.374547 89.1204 1.61099 92.9614 5.77683C107.674 21.7423 92.738 68.0264 89.5982 77.148C89.214 78.2619 88.4282 79.2382 87.3574 79.9321C86.2866 80.6259 84.9878 81.0004 83.6537 81Z" fill="#52EDFF"/>
<path d="M129.835 76C136.739 76 142.335 70.4036 142.335 63.5C142.335 56.5964 136.739 51 129.835 51C122.932 51 117.335 56.5964 117.335 63.5C117.335 70.4036 122.932 76 129.835 76Z" fill="#52EDFF"/>
<path d="M262.335 139C267.306 139 271.335 134.971 271.335 130C271.335 125.029 267.306 121 262.335 121C257.365 121 253.335 125.029 253.335 130C253.335 134.971 257.365 139 262.335 139Z" fill="#7209B7"/>
<path d="M285.835 158C291.082 158 295.335 153.747 295.335 148.5C295.335 143.253 291.082 139 285.835 139C280.589 139 276.335 143.253 276.335 148.5C276.335 153.747 280.589 158 285.835 158Z" fill="#F12980"/>
<path d="M252.835 47C259.739 47 265.335 41.4036 265.335 34.5C265.335 27.5964 259.739 22 252.835 22C245.932 22 240.335 27.5964 240.335 34.5C240.335 41.4036 245.932 47 252.835 47Z" fill="#4361EE"/>
<path d="M230.835 81C236.082 81 240.335 76.7467 240.335 71.5C240.335 66.2533 236.082 62 230.835 62C225.589 62 221.335 66.2533 221.335 71.5C221.335 76.7467 225.589 81 230.835 81Z" fill="#4361EE"/>
<path d="M130.835 29C136.082 29 140.335 24.7467 140.335 19.5C140.335 14.2533 136.082 10 130.835 10C125.589 10 121.335 14.2533 121.335 19.5C121.335 24.7467 125.589 29 130.835 29Z" fill="#52EDFF"/>
<defs>
<linearGradient id="paint0_linear_1_109" x1="68.9276" y1="142.841" x2="175.218" y2="264.021" gradientUnits="userSpaceOnUse">
<stop stop-color="#4CC9F0"/>
<stop offset="0.28684" stop-color="#4361EE"/>
<stop offset="0.524848" stop-color="#7209B7"/>
<stop offset="0.83892" stop-color="#F72585"/>
</linearGradient>
</defs>
</svg>
