<svg width="234" height="268" viewBox="0 0 234 268" fill="none" xmlns="http://www.w3.org/2000/svg">
<path d="M187.513 59.7774C195.513 64.0831 201.461 79.0052 194.85 90.1546C206.209 100.91 204.692 117.099 197.592 124.78C202.566 124.78 209.361 134.758 209.314 144.73C209.266 154.708 200.519 164.686 189.407 164.686H134.673C134.673 184.642 149.6 193.903 149.6 214.571C149.6 223.365 149.6 234.557 141.003 240.451C132.014 246.614 120.406 239.716 118.144 229.054C115.767 217.845 114.361 204.192 104.813 194.62C90.8331 180.6 69.9793 143.195 55.0521 143.195H32.8931C28.3613 143.195 24.6875 139.521 24.6875 134.989V53.1663C24.6875 48.6345 28.3644 44.9646 32.8719 44.4962C61.7238 41.4985 105.366 25.0047 139.647 25.0047H159.553C178.245 25.0047 191.565 34.0382 187.513 59.7774Z" fill="#1E1D23"/>
<path fill-rule="evenodd" clip-rule="evenodd" d="M87.3814 212.002L87.3847 212.005C88.3288 212.952 89.4683 214.642 90.6311 218.436C91.218 220.351 91.7328 222.535 92.2843 225.228C92.427 225.925 92.6479 227.055 92.8955 228.32C93.2863 230.317 93.7434 232.654 94.0635 234.163C96.7103 246.64 104.782 257.112 115.509 262.806C126.722 268.757 141.821 269.738 154.924 260.754C165.873 253.247 170.541 242.634 172.506 234.159C174.233 226.713 174.223 219.257 174.217 215.19C174.217 214.974 174.217 214.768 174.217 214.571C174.217 204.462 171.895 196.023 169.237 189.303H189.408C215.176 189.303 233.824 167.24 233.931 144.847C233.977 135.036 230.927 125.945 226.819 118.973C228.944 108.129 227.57 96.2214 221.918 85.5588C222.847 78.363 222.025 71.4131 220.283 65.4719C218.805 60.4348 216.356 55.0931 212.84 50.2482C212.677 37.6894 209.1 25.5362 199.978 15.8562C188.172 3.32837 172.088 0.387817 159.553 0.387817H139.647C119.255 0.387817 97.1756 5.21619 78.4961 9.68503C74.712 10.5903 71.0859 11.4744 67.6103 12.3217C52.5603 15.9908 40.3331 18.9716 30.3281 20.0112C14.7082 21.6341 0.0708008 34.6356 0.0708008 53.1663V134.989C0.0708008 153.117 14.7659 167.812 32.8933 167.812H50.9796C50.9795 167.812 50.9797 167.812 50.9796 167.812C53.5141 170.022 56.8359 173.708 61.0178 178.969C63.8814 182.571 66.6117 186.212 69.4947 190.058C70.8291 191.838 72.1961 193.661 73.6243 195.545C77.7212 200.947 82.5609 207.168 87.3814 212.002ZM49.2288 166.477C49.2303 166.488 49.3397 166.563 49.5528 166.674C49.3339 166.522 49.2273 166.467 49.2288 166.477ZM187.513 59.7774C195.513 64.0831 201.461 79.0052 194.85 90.1546C198.115 93.2465 200.317 96.7873 201.627 100.446C204.876 109.515 202.651 119.307 197.592 124.78C200.483 124.78 203.989 128.15 206.409 132.93C208.153 136.376 209.334 140.553 209.314 144.73C209.267 154.708 200.519 164.686 189.408 164.686H134.673C134.673 174.577 138.339 181.84 142.038 189.167C142.061 189.212 142.084 189.258 142.107 189.303C145.848 196.715 149.6 204.21 149.6 214.571C149.6 223.365 149.6 234.557 141.003 240.451C132.014 246.614 120.406 239.716 118.145 229.054C117.813 227.492 117.501 225.883 117.182 224.244C115.217 214.119 113.03 202.858 104.813 194.62C100.267 190.061 94.9933 183.028 89.4331 175.613C77.8962 160.227 65.1249 143.195 55.0523 143.195H32.8933C28.3615 143.195 24.6877 139.521 24.6877 134.989V53.1663C24.6877 48.6345 28.3645 44.9646 32.8721 44.4962C44.7081 43.2665 59.0332 39.7654 74.18 36.0636C95.9555 30.7417 119.429 25.0047 139.647 25.0047H159.553C178.245 25.0047 191.566 34.0382 187.513 59.7774Z" fill="url(#paint0_linear_1_120)"/>
<defs>
<linearGradient id="paint0_linear_1_120" x1="8.66642" y1="5.42616" x2="25.6449" y2="268.203" gradientUnits="userSpaceOnUse">
<stop stop-color="#4CC9F0"/>
<stop offset="0.28684" stop-color="#4361EE"/>
<stop offset="0.524848" stop-color="#7209B7"/>
<stop offset="0.83892" stop-color="#F72585"/>
</linearGradient>
</defs>
</svg>
