<svg width="229" height="262" viewBox="0 0 229 262" fill="none" xmlns="http://www.w3.org/2000/svg">
<path d="M182.816 203.141C190.616 198.943 196.414 184.395 189.969 173.525C201.043 163.039 199.565 147.255 192.643 139.768C197.492 139.768 204.117 130.04 204.071 120.317C204.024 110.589 195.496 100.861 184.663 100.861H131.3C131.3 81.4051 145.853 72.3767 145.853 52.2263C145.853 43.6529 145.853 32.7415 137.472 26.9948C128.708 20.9859 117.391 27.7115 115.186 38.1061C112.867 49.0341 111.497 62.3455 102.188 71.6771C88.5589 85.3456 68.2276 121.814 53.6745 121.814H32.0708C27.6525 121.814 24.0708 125.396 24.0708 129.814V209.586C24.0708 214.005 27.6555 217.583 32.0501 218.039C60.179 220.962 102.728 237.042 136.149 237.042H155.557C173.78 237.042 186.767 228.235 182.816 203.141Z" fill="#1E1D23"/>
<path fill-rule="evenodd" clip-rule="evenodd" d="M85.1935 54.7309L85.1967 54.7277C86.1171 53.805 87.228 52.1572 88.3618 48.4578C88.934 46.5908 89.4359 44.4622 89.9735 41.836C90.1126 41.1565 90.328 40.0555 90.5694 38.822C90.9504 36.8746 91.396 34.5969 91.7082 33.1256C94.2886 20.9613 102.158 10.7519 112.617 5.20051C123.548 -0.601915 138.269 -1.55798 151.044 7.20079C161.718 14.52 166.269 24.8665 168.185 33.129C169.868 40.3887 169.859 47.6583 169.853 51.6226C169.853 51.8334 169.853 52.0348 169.853 52.2263C169.853 62.0823 167.589 70.3096 164.998 76.861H184.663C209.786 76.861 227.967 98.3711 228.07 120.203C228.116 129.768 225.142 138.631 221.137 145.429C223.208 156.001 221.869 167.61 216.359 178.006C217.264 185.021 216.463 191.797 214.764 197.589C213.324 202.5 210.936 207.708 207.508 212.431C207.349 224.676 203.861 236.524 194.968 245.962C183.459 258.176 167.777 261.042 155.557 261.042H136.149C116.268 261.042 94.7423 256.335 76.5308 251.978C72.8416 251.096 69.3063 250.234 65.9178 249.408C51.2449 245.83 39.3242 242.924 29.5699 241.911C14.3414 240.329 0.0708008 227.653 0.0708008 209.586V129.814C0.0708008 112.141 14.3977 97.814 32.0708 97.814H49.7039C49.7038 97.8141 49.7039 97.8139 49.7039 97.814C52.1749 95.6592 55.4134 92.0657 59.4906 86.9367C62.2823 83.4248 64.9442 79.8743 67.755 76.1252C69.0559 74.39 70.3887 72.6122 71.7811 70.7761C75.7753 65.5087 80.4938 59.4441 85.1935 54.7309ZM47.9969 99.1148C47.9984 99.1049 48.1051 99.0312 48.3129 98.9234C48.0994 99.0709 47.9955 99.1247 47.9969 99.1148ZM182.816 203.141C190.616 198.943 196.414 184.395 189.969 173.525C193.152 170.511 195.299 167.059 196.576 163.492C199.743 154.65 197.575 145.103 192.643 139.768C195.461 139.768 198.879 136.482 201.239 131.821C202.939 128.462 204.09 124.389 204.071 120.317C204.024 110.589 195.496 100.861 184.663 100.861H131.3C131.3 91.2184 134.875 84.1371 138.481 76.9937C138.503 76.9495 138.525 76.9053 138.548 76.861C142.195 69.6346 145.853 62.3281 145.853 52.2263C145.853 43.6529 145.853 32.7415 137.472 26.9948C128.708 20.9859 117.391 27.7115 115.186 38.1061C114.863 39.6289 114.558 41.1979 114.248 42.796C112.331 52.6666 110.2 63.6458 102.188 71.6771C97.7559 76.1223 92.6146 82.9789 87.1938 90.2083C75.946 105.209 63.4947 121.814 53.6745 121.814H32.0708C27.6525 121.814 24.0708 125.396 24.0708 129.814V209.586C24.0708 214.005 27.6555 217.583 32.0501 218.039C43.5895 219.238 57.5557 222.652 72.3229 226.261C93.5527 231.449 116.438 237.042 136.149 237.042H155.557C173.78 237.042 186.767 228.235 182.816 203.141Z" fill="url(#paint0_linear_1_122)"/>
<defs>
<linearGradient id="paint0_linear_1_122" x1="122.94" y1="33.1361" x2="246.463" y2="208.888" gradientUnits="userSpaceOnUse">
<stop stop-color="#4CC9F0"/>
<stop offset="0.28684" stop-color="#4361EE"/>
<stop offset="0.524848" stop-color="#7209B7"/>
<stop offset="0.83892" stop-color="#F72585"/>
</linearGradient>
</defs>
</svg>
