<svg width="290" height="291" viewBox="0 0 290 291" fill="none" xmlns="http://www.w3.org/2000/svg">
<rect width="290" height="290" rx="145" transform="matrix(1 0 0 -1 0 290.706)" fill="#1E1D23"/>
<path fill-rule="evenodd" clip-rule="evenodd" d="M145 262.706C80.3827 262.706 28 210.323 28 145.706C28 81.0889 80.3827 28.7062 145 28.7062C209.617 28.7062 262 81.0889 262 145.706C262 210.323 209.617 262.706 145 262.706ZM0 145.706C0 225.787 64.9187 290.706 145 290.706C225.081 290.706 290 225.787 290 145.706C290 65.6249 225.081 0.706177 145 0.706177C64.9187 0.706177 0 65.6249 0 145.706Z" fill="#1E1D23"/>
<path fill-rule="evenodd" clip-rule="evenodd" d="M145 262.706C80.3827 262.706 28 210.323 28 145.706C28 81.0889 80.3827 28.7062 145 28.7062C209.617 28.7062 262 81.0889 262 145.706C262 210.323 209.617 262.706 145 262.706ZM0 145.706C0 225.787 64.9187 290.706 145 290.706C225.081 290.706 290 225.787 290 145.706C290 65.6249 225.081 0.706177 145 0.706177C64.9187 0.706177 0 65.6249 0 145.706Z" fill="url(#paint0_linear_1_116)"/>
<path fill-rule="evenodd" clip-rule="evenodd" d="M116.84 88.0526C125.638 83.8736 135.258 81.7058 145 81.7057C154.742 81.7056 164.362 83.8732 173.16 88.052C181.958 92.2308 189.713 98.3165 195.859 105.868C200.739 111.865 199.834 120.683 193.837 125.563C187.84 130.444 179.022 129.539 174.142 123.542C170.627 119.224 166.189 115.739 161.147 113.344C156.105 110.949 150.588 109.706 145 109.706C139.412 109.706 133.896 110.949 128.854 113.344C123.812 115.739 119.373 119.224 115.859 123.542C110.979 129.54 102.161 130.445 96.1635 125.564C90.1664 120.684 89.2611 111.866 94.1414 105.869C100.287 98.3174 108.042 92.2316 116.84 88.0526Z" fill="#1E1D23"/>
<path fill-rule="evenodd" clip-rule="evenodd" d="M116.84 88.0526C125.638 83.8736 135.258 81.7058 145 81.7057C154.742 81.7056 164.362 83.8732 173.16 88.052C181.958 92.2308 189.713 98.3165 195.859 105.868C200.739 111.865 199.834 120.683 193.837 125.563C187.84 130.444 179.022 129.539 174.142 123.542C170.627 119.224 166.189 115.739 161.147 113.344C156.105 110.949 150.588 109.706 145 109.706C139.412 109.706 133.896 110.949 128.854 113.344C123.812 115.739 119.373 119.224 115.859 123.542C110.979 129.54 102.161 130.445 96.1635 125.564C90.1664 120.684 89.2611 111.866 94.1414 105.869C100.287 98.3174 108.042 92.2316 116.84 88.0526Z" fill="#F4F4F4"/>
<path d="M95.6145 154.463C105.967 154.463 114.359 162.855 114.359 173.208C114.359 183.56 105.967 191.952 95.6145 191.952C85.2622 191.952 76.8701 183.56 76.8701 173.208C76.8701 162.855 85.2622 154.463 95.6145 154.463Z" fill="#1E1D23"/>
<path d="M95.6145 154.463C105.967 154.463 114.359 162.855 114.359 173.208C114.359 183.56 105.967 191.952 95.6145 191.952C85.2622 191.952 76.8701 183.56 76.8701 173.208C76.8701 162.855 85.2622 154.463 95.6145 154.463Z" fill="#F4F4F4"/>
<path d="M193.864 154.463C204.217 154.463 212.609 162.855 212.609 173.208C212.609 183.56 204.217 191.952 193.864 191.952C183.512 191.952 175.12 183.56 175.12 173.208C175.12 162.855 183.512 154.463 193.864 154.463Z" fill="#1E1D23"/>
<path d="M193.864 154.463C204.217 154.463 212.609 162.855 212.609 173.208C212.609 183.56 204.217 191.952 193.864 191.952C183.512 191.952 175.12 183.56 175.12 173.208C175.12 162.855 183.512 154.463 193.864 154.463Z" fill="#F4F4F4"/>
<defs>
<linearGradient id="paint0_linear_1_116" x1="163.692" y1="35.3009" x2="280.663" y2="247.02" gradientUnits="userSpaceOnUse">
<stop stop-color="#4CC9F0"/>
<stop offset="0.28684" stop-color="#4361EE"/>
<stop offset="0.524848" stop-color="#7209B7"/>
<stop offset="0.83892" stop-color="#F72585"/>
</linearGradient>
</defs>
</svg>
