<svg width="280" height="376" viewBox="0 0 280 376" fill="none" xmlns="http://www.w3.org/2000/svg">
<path fill-rule="evenodd" clip-rule="evenodd" d="M192.259 54.0951C192.052 49.1731 195.873 44.9821 200.793 44.7344C209.285 44.3068 224.82 46.3673 239.936 53.1197C255.182 59.93 271.13 72.0512 278.211 92.4803C279.821 97.1244 277.353 102.226 272.699 103.875C268.045 105.524 262.967 103.097 261.358 98.4524C256.407 84.1686 245.089 75.0253 232.556 69.4267C219.893 63.7701 207.136 62.2771 201.543 62.5587C196.623 62.8065 192.467 59.0172 192.259 54.0951Z" fill="#6E6B75"/>
<path fill-rule="evenodd" clip-rule="evenodd" d="M206.762 16.7855C206.696 11.8698 210.645 7.88484 215.582 7.88484C231.046 7.88484 249.477 13.7012 265.568 25.5941C269.557 28.5428 270.433 34.1215 267.524 38.0547C264.616 41.9878 259.024 42.7859 255.034 39.8372C241.816 30.0671 227.116 25.6861 215.82 25.6861C210.883 25.6861 206.828 21.7011 206.762 16.7855Z" fill="#6E6B75"/>
<path fill-rule="evenodd" clip-rule="evenodd" d="M76.1759 368.338C74.6807 372.924 69.7237 375.033 65.1043 373.049C56.5591 369.379 48.5792 365.425 40.6913 358.945C32.8044 352.467 25.493 343.87 17.5796 331.434C14.8082 327.079 15.7935 321.563 19.7802 319.115C23.767 316.666 29.2455 318.212 32.0169 322.567C39.1534 333.783 45.1013 340.517 50.8349 345.227C56.5676 349.936 62.5694 353.028 70.5191 356.443C75.1385 358.427 77.6712 363.753 76.1759 368.338Z" fill="#6E6B75"/>
<path fill-rule="evenodd" clip-rule="evenodd" d="M99.2276 338.37C98.0081 343.078 93.2324 345.475 88.5608 343.724C78.4224 339.924 65.6961 333.287 52.8876 320.444C40.1004 307.622 27.6226 289.007 17.4498 261.767C15.6479 256.943 17.8185 251.899 22.2978 250.503C26.7771 249.106 31.8689 251.886 33.6708 256.71C42.9745 281.623 53.9659 297.565 64.3464 307.974C74.7055 318.361 84.8452 323.628 92.9772 326.676C97.6487 328.427 100.447 333.663 99.2276 338.37Z" fill="#6E6B75"/>
<path d="M266.848 236.076C260.351 257.279 247.713 276.079 230.533 290.102C213.353 304.124 192.401 312.738 170.326 314.855C148.252 316.972 126.045 312.497 106.512 301.996C86.9803 291.495 70.9997 275.439 60.5908 255.857L10.3737 161.327C7.54792 156.012 6.1134 150.068 6.20375 144.048C6.2941 138.029 7.90638 132.131 10.8904 126.903C13.8745 121.675 18.1332 117.287 23.2699 114.148C28.4066 111.009 34.2541 109.221 40.2679 108.951L36.259 101.403C32.2751 93.8946 31.1016 85.2114 32.9498 76.9154C34.7979 68.6193 39.5464 61.2553 46.3405 56.1485C53.1347 51.0418 61.5284 48.5275 70.0112 49.0584C78.494 49.5892 86.5089 53.1302 92.6134 59.0441C96.0279 53.889 100.724 49.71 106.24 46.9171C111.757 44.1242 117.905 42.8134 124.081 43.1131C130.257 43.4129 136.249 45.313 141.469 48.627C146.69 51.941 150.959 56.5552 153.858 62.0167L174.594 101.052C178.19 96.2256 182.949 92.3867 188.427 89.8924C193.905 87.3982 199.925 86.3297 205.927 86.7862C211.929 87.2427 217.718 89.2095 222.756 92.5035C227.794 95.7976 231.917 100.312 234.742 105.627L258.655 150.64C265.602 163.632 269.903 177.872 271.31 192.537C272.716 207.202 271.2 222.001 266.848 236.076ZM240.649 160.205L216.736 115.192C215.794 113.419 214.512 111.848 212.963 110.57C211.414 109.292 209.628 108.332 207.708 107.744C205.788 107.156 203.771 106.952 201.772 107.144C199.773 107.335 197.831 107.919 196.057 108.861C194.284 109.803 192.713 111.085 191.435 112.634C190.157 114.183 189.197 115.969 188.609 117.889C188.021 119.81 187.817 121.827 188.009 123.826C188.2 125.825 188.784 127.767 189.726 129.54L201.683 152.047C201.842 152.347 201.987 152.655 202.115 152.97C202.209 153.199 202.285 153.431 202.361 153.663C202.389 153.747 202.423 153.829 202.448 153.912C202.534 154.197 202.601 154.484 202.66 154.772C202.668 154.807 202.679 154.842 202.687 154.877C202.744 155.172 202.785 155.47 202.816 155.767C202.819 155.798 202.827 155.831 202.829 155.863C202.856 156.147 202.865 156.43 202.869 156.712C202.869 156.763 202.875 156.812 202.874 156.861C202.874 157.121 202.856 157.38 202.834 157.638C202.829 157.713 202.829 157.787 202.823 157.86C202.797 158.102 202.756 158.343 202.714 158.583C202.698 158.671 202.691 158.761 202.673 158.848C202.613 159.135 202.542 159.419 202.458 159.7C202.446 159.738 202.44 159.776 202.428 159.814C202.417 159.852 202.4 159.888 202.389 159.927C202.3 160.205 202.203 160.482 202.091 160.751C202.059 160.826 202.019 160.896 201.987 160.97C201.887 161.202 201.778 161.431 201.661 161.655C201.631 161.709 201.597 161.758 201.566 161.811C201.434 162.049 201.296 162.286 201.142 162.514L201.087 162.59C200.917 162.839 200.738 163.081 200.545 163.315L200.523 163.34C200.318 163.586 200.103 163.823 199.875 164.05L199.854 164.07C199.626 164.297 199.388 164.513 199.139 164.717C199.098 164.75 199.053 164.779 199.011 164.812C198.793 164.984 198.572 165.153 198.336 165.311C198.054 165.499 197.763 165.673 197.464 165.832C192.735 168.344 188.546 171.763 185.139 175.894C181.731 180.024 179.17 184.786 177.602 189.906C176.034 195.027 175.491 200.406 176.002 205.736C176.513 211.067 178.069 216.245 180.581 220.974C181.22 222.157 181.618 223.455 181.753 224.792C181.888 226.13 181.757 227.481 181.368 228.768C180.979 230.055 180.339 231.252 179.485 232.29C178.631 233.329 177.58 234.188 176.393 234.819C175.206 235.45 173.905 235.839 172.567 235.966C171.228 236.092 169.878 235.952 168.594 235.554C167.31 235.156 166.117 234.508 165.084 233.648C164.051 232.787 163.199 231.73 162.576 230.539C155.797 217.772 153.756 203.016 156.815 188.888C159.874 174.76 167.836 162.171 179.289 153.351L171.722 139.105L171.72 139.099L135.853 71.5832C133.95 68.0015 130.703 65.3224 126.825 64.1352C122.947 62.948 118.756 63.3499 115.174 65.2525C111.593 67.1551 108.914 70.4026 107.726 74.2806C106.539 78.1585 106.941 82.3493 108.844 85.9309L139.929 144.449C141.198 146.837 141.466 149.631 140.674 152.216C139.882 154.801 138.096 156.967 135.709 158.235C133.321 159.503 130.527 159.771 127.941 158.98C125.356 158.188 123.191 156.402 121.923 154.014L90.8359 95.496L90.8181 95.4584L81.272 77.4896C80.3299 75.7161 79.0477 74.1456 77.4987 72.8677C75.9497 71.5897 74.1641 70.6294 72.2439 70.0416C70.3237 69.4537 68.3066 69.2498 66.3076 69.4415C64.3087 69.6332 62.367 70.2168 60.5936 71.1589C57.012 73.0615 54.3328 76.309 53.1456 80.187C52.5577 82.1071 52.3538 84.1243 52.5455 86.1232C52.7373 88.1222 53.3208 90.0639 54.2629 91.8373L73.3896 127.843L73.3932 127.849L99.6974 177.366C100.382 178.639 100.786 180.043 100.884 181.485C100.982 182.927 100.77 184.373 100.263 185.726C99.7566 187.08 98.9665 188.309 97.9461 189.332C96.9256 190.356 95.6983 191.149 94.3463 191.659C94.2338 191.703 94.1217 191.738 94.0106 191.778C93.7249 191.876 93.438 191.961 93.1498 192.033C93.0341 192.062 92.9208 192.091 92.8052 192.116C92.449 192.193 92.0891 192.25 91.7268 192.287L91.6306 192.302C91.236 192.337 90.8396 192.348 90.4436 192.337C90.4117 192.335 90.3785 192.339 90.3453 192.338C90.2791 192.336 90.2133 192.322 90.1459 192.318C89.837 192.302 89.5304 192.271 89.2259 192.226C89.1169 192.209 89.009 192.195 88.9 192.176C88.5357 192.112 88.1752 192.027 87.82 191.924L87.7441 191.906C87.3638 191.789 86.9907 191.65 86.6266 191.489C86.5324 191.447 86.4422 191.402 86.3507 191.358C86.0739 191.229 85.8031 191.086 85.5382 190.93C85.4432 190.876 85.3482 190.822 85.2547 190.762C84.9236 190.556 84.6046 190.331 84.2992 190.088L84.2781 190.072C83.9635 189.815 83.6645 189.538 83.3829 189.245C83.3091 189.169 83.2393 189.087 83.1668 189.008C82.9541 188.774 82.7523 188.53 82.5615 188.275C82.4945 188.186 82.4275 188.1 82.3618 188.008C82.1165 187.663 81.8929 187.304 81.6922 186.931L55.388 137.414C53.47 133.861 50.2243 131.21 46.3593 130.041C42.4942 128.872 38.3237 129.279 34.7576 131.173C31.1916 133.068 28.5197 136.296 27.3249 140.153C26.1301 144.01 26.5094 148.183 28.3802 151.762L78.5973 246.292C90.0131 267.781 109.498 283.856 132.765 290.979C156.033 298.102 181.177 295.69 202.667 284.275C224.156 272.859 240.23 253.374 247.354 230.107C254.477 206.839 252.065 181.695 240.649 160.205Z" fill="url(#paint0_linear_1_119)"/>
<path d="M240.649 160.205L216.736 115.192C215.794 113.419 214.512 111.848 212.963 110.57C211.414 109.292 209.628 108.332 207.708 107.744C205.788 107.156 203.771 106.952 201.772 107.144C199.773 107.335 197.831 107.919 196.057 108.861C194.284 109.803 192.713 111.085 191.435 112.634C190.157 114.183 189.197 115.969 188.609 117.889C188.021 119.81 187.817 121.827 188.009 123.826C188.2 125.825 188.784 127.767 189.726 129.54L201.683 152.047C201.842 152.347 201.987 152.655 202.115 152.97C202.209 153.199 202.285 153.431 202.361 153.663C202.389 153.747 202.423 153.829 202.448 153.912C202.534 154.197 202.601 154.484 202.66 154.772C202.668 154.807 202.679 154.842 202.687 154.877C202.744 155.172 202.785 155.47 202.816 155.767C202.819 155.798 202.827 155.831 202.829 155.863C202.856 156.147 202.865 156.43 202.869 156.712C202.869 156.719 202.869 156.726 202.87 156.733C202.87 156.752 202.871 156.77 202.872 156.788C202.872 156.79 202.872 156.793 202.872 156.795C202.874 156.817 202.875 156.839 202.874 156.861C202.874 157.121 202.856 157.38 202.834 157.638C202.83 157.693 202.829 157.747 202.827 157.801C202.826 157.807 202.826 157.813 202.826 157.819C202.825 157.833 202.824 157.847 202.823 157.86C202.797 158.102 202.756 158.343 202.714 158.583C202.698 158.671 202.691 158.761 202.673 158.848C202.613 159.135 202.542 159.419 202.458 159.7C202.446 159.738 202.44 159.776 202.428 159.814C202.417 159.852 202.4 159.888 202.389 159.927C202.3 160.205 202.203 160.482 202.091 160.751C202.078 160.78 202.065 160.809 202.051 160.837C202.046 160.846 202.042 160.855 202.037 160.864C202.022 160.895 202.007 160.927 201.992 160.958C201.991 160.962 201.989 160.966 201.987 160.97C201.887 161.202 201.778 161.431 201.661 161.655C201.631 161.709 201.597 161.758 201.566 161.811C201.434 162.049 201.296 162.286 201.142 162.514L201.087 162.59C200.917 162.839 200.738 163.081 200.545 163.315L200.523 163.34C200.318 163.586 200.103 163.823 199.875 164.05L199.854 164.07C199.626 164.297 199.388 164.513 199.139 164.717C199.098 164.75 199.053 164.779 199.011 164.812C198.793 164.984 198.572 165.153 198.336 165.311C198.054 165.499 197.763 165.673 197.464 165.832C192.735 168.344 188.546 171.763 185.139 175.894C181.731 180.024 179.17 184.786 177.602 189.906C176.034 195.027 175.491 200.406 176.002 205.736C176.513 211.067 178.069 216.245 180.581 220.974C181.22 222.157 181.618 223.455 181.753 224.792C181.888 226.13 181.757 227.481 181.368 228.768C180.979 230.055 180.339 231.252 179.485 232.29C178.631 233.329 177.58 234.188 176.393 234.819C175.206 235.45 173.905 235.839 172.567 235.966C171.228 236.092 169.878 235.952 168.594 235.554C167.31 235.156 166.117 234.508 165.084 233.648C164.051 232.787 163.199 231.73 162.576 230.539C155.797 217.772 153.756 203.016 156.815 188.888C159.874 174.76 167.836 162.171 179.289 153.351L171.722 139.105L171.72 139.099L135.853 71.5832C133.95 68.0015 130.703 65.3224 126.825 64.1352C122.947 62.948 118.756 63.3499 115.174 65.2525C111.593 67.1551 108.914 70.4026 107.726 74.2806C106.539 78.1585 106.941 82.3493 108.844 85.9309L139.929 144.449C141.198 146.837 141.466 149.631 140.674 152.216C139.882 154.801 138.096 156.967 135.709 158.235C133.321 159.503 130.527 159.771 127.941 158.98C125.356 158.188 123.191 156.402 121.923 154.014L90.8359 95.496L90.8181 95.4584L81.272 77.4896C80.3299 75.7161 79.0477 74.1456 77.4987 72.8677C75.9497 71.5897 74.1641 70.6294 72.2439 70.0416C70.3237 69.4537 68.3066 69.2498 66.3076 69.4415C64.3087 69.6332 62.367 70.2168 60.5936 71.1589C57.012 73.0615 54.3328 76.309 53.1456 80.187C52.5577 82.1071 52.3538 84.1243 52.5455 86.1232C52.7373 88.1222 53.3208 90.0639 54.2629 91.8373L73.3896 127.843L73.3932 127.849L99.6974 177.366C100.382 178.639 100.786 180.043 100.884 181.485C100.982 182.927 100.77 184.373 100.263 185.726C99.7566 187.08 98.9665 188.309 97.9461 189.332C96.9256 190.356 95.6983 191.149 94.3463 191.659C94.3159 191.671 94.2855 191.682 94.2552 191.693C94.227 191.703 94.1989 191.713 94.1709 191.722C94.1575 191.727 94.1442 191.732 94.1309 191.736C94.1192 191.74 94.1074 191.744 94.0957 191.748C94.0673 191.758 94.0389 191.768 94.0106 191.778C93.7249 191.876 93.438 191.961 93.1498 192.033L93.1023 192.045C93.0029 192.07 92.9049 192.095 92.8052 192.116C92.449 192.193 92.0891 192.25 91.7268 192.287L91.6306 192.302C91.236 192.337 90.8396 192.348 90.4436 192.337C90.4117 192.335 90.3785 192.339 90.3453 192.338C90.3397 192.338 90.334 192.338 90.3283 192.337C90.2991 192.335 90.27 192.332 90.2408 192.328C90.2218 192.326 90.2028 192.323 90.1836 192.321C90.1711 192.32 90.1585 192.319 90.1459 192.318C89.837 192.302 89.5304 192.271 89.2259 192.226C89.1169 192.209 89.009 192.195 88.9 192.176C88.5357 192.112 88.1752 192.027 87.82 191.924L87.7441 191.906C87.3638 191.789 86.9907 191.65 86.6266 191.489C86.5324 191.447 86.4422 191.402 86.3507 191.358C86.0739 191.229 85.8031 191.086 85.5382 190.93C85.4432 190.876 85.3482 190.822 85.2547 190.762C84.9236 190.556 84.6046 190.331 84.2992 190.088L84.2781 190.072C83.9635 189.815 83.6645 189.538 83.3829 189.245C83.3091 189.169 83.2393 189.087 83.1668 189.008C82.9541 188.774 82.7523 188.53 82.5615 188.275C82.4945 188.186 82.4275 188.1 82.3618 188.008C82.1165 187.663 81.8929 187.304 81.6922 186.931L55.388 137.414C53.47 133.861 50.2243 131.21 46.3593 130.041C42.4942 128.872 38.3237 129.279 34.7576 131.173C31.1916 133.068 28.5197 136.296 27.3249 140.153C26.1301 144.01 26.5094 148.183 28.3802 151.762L78.5973 246.292C90.0131 267.781 109.498 283.856 132.765 290.979C156.033 298.102 181.177 295.69 202.667 284.275C224.156 272.859 240.23 253.374 247.354 230.107C254.477 206.839 252.065 181.695 240.649 160.205Z" fill="#1E1D23"/>
<path fill-rule="evenodd" clip-rule="evenodd" d="M202.872 156.788C202.871 156.77 202.87 156.752 202.87 156.733C202.87 156.754 202.871 156.775 202.872 156.795C202.872 156.793 202.872 156.79 202.872 156.788ZM202.827 157.801C202.826 157.807 202.826 157.813 202.826 157.819C202.825 157.833 202.824 157.847 202.823 157.86M201.992 160.958C202.007 160.927 202.022 160.895 202.037 160.864C202.042 160.855 202.046 160.846 202.051 160.837C202.031 160.877 202.011 160.917 201.992 160.958ZM94.0957 191.748C94.1074 191.744 94.1192 191.74 94.1309 191.736C94.1442 191.732 94.1575 191.727 94.1709 191.722C94.1458 191.731 94.1207 191.74 94.0957 191.748Z" fill="#1E1D23"/>
<defs>
<linearGradient id="paint0_linear_1_119" x1="152.838" y1="77.8678" x2="268.471" y2="278.892" gradientUnits="userSpaceOnUse">
<stop stop-color="#4CC9F0"/>
<stop offset="0.28684" stop-color="#4361EE"/>
<stop offset="0.524848" stop-color="#7209B7"/>
<stop offset="0.83892" stop-color="#F72585"/>
</linearGradient>
</defs>
</svg>
