<svg width="290" height="291" viewBox="0 0 290 291" fill="none" xmlns="http://www.w3.org/2000/svg">
<rect y="0.706177" width="290" height="290" rx="145" fill="#1E1D23"/>
<path d="M112.588 132.706H68.4118C65.4229 132.706 63 130.283 63 127.294V114.206C63 99.0183 75.3122 86.7062 90.5 86.7062C105.688 86.7062 118 99.0183 118 114.206V127.294C118 130.283 115.577 132.706 112.588 132.706Z" fill="#1E1D23"/>
<path d="M112.588 132.706H68.4118C65.4229 132.706 63 130.283 63 127.294V114.206C63 99.0183 75.3122 86.7062 90.5 86.7062C105.688 86.7062 118 99.0183 118 114.206V127.294C118 130.283 115.577 132.706 112.588 132.706Z" fill="#F4F4F4"/>
<path d="M200.588 132.706H156.412C153.423 132.706 151 130.283 151 127.294V114.206C151 99.0183 163.312 86.7062 178.5 86.7062C193.688 86.7062 206 99.0183 206 114.206V127.294C206 130.283 203.577 132.706 200.588 132.706Z" fill="#1E1D23"/>
<path d="M200.588 132.706H156.412C153.423 132.706 151 130.283 151 127.294V114.206C151 99.0183 163.312 86.7062 178.5 86.7062C193.688 86.7062 206 99.0183 206 114.206V127.294C206 130.283 203.577 132.706 200.588 132.706Z" fill="#F4F4F4"/>
<path d="M190.842 157.706H71.4706C66.7924 157.706 63 161.499 63 166.177C63 201.263 91.4431 229.706 126.529 229.706H149.158C180.551 229.706 206 204.257 206 172.864C206 164.493 199.214 157.706 190.842 157.706Z" fill="#F4F4F4"/>
<path d="M117.768 110.621C115.005 112.565 111.636 113.706 108 113.706C98.6112 113.706 91 106.095 91 96.7061C91 93.0705 92.1412 89.7014 94.085 86.9376C106.406 88.5416 116.164 98.3005 117.768 110.621Z" fill="#F4F4F4"/>
<path d="M184.757 87.4211C196.311 90.1096 205.069 100.081 205.93 112.234C203.814 113.18 201.468 113.706 199 113.706C189.611 113.706 182 106.095 182 96.7061C182 93.2798 183.014 90.0903 184.757 87.4211Z" fill="#F4F4F4"/>
<path d="M190.738 211.621C169.885 197.13 141.112 204.173 132.193 229.706H149.158C165.573 229.706 180.362 222.748 190.738 211.621Z" fill="#F4F4F4"/>
<path d="M117.768 110.621C115.005 112.565 111.636 113.706 108 113.706C98.6112 113.706 91 106.095 91 96.7061C91 93.0705 92.1412 89.7014 94.085 86.9376C106.406 88.5416 116.164 98.3005 117.768 110.621Z" fill="#3D3D45"/>
<path d="M205.93 112.234C203.814 113.18 201.468 113.706 199 113.706C189.611 113.706 182 106.095 182 96.7061C182 93.2798 183.014 90.0903 184.757 87.4211C196.311 90.1096 205.069 100.081 205.93 112.234Z" fill="#3D3D45"/>
<path fill-rule="evenodd" clip-rule="evenodd" d="M145 28.7062C80.3827 28.7062 28 81.0889 28 145.706C28 210.324 80.3827 262.706 145 262.706C209.617 262.706 262 210.324 262 145.706C262 81.0889 209.617 28.7062 145 28.7062ZM0 145.706C0 65.6249 64.9187 0.706177 145 0.706177C225.081 0.706177 290 65.6249 290 145.706C290 225.787 225.081 290.706 145 290.706C64.9187 290.706 0 225.787 0 145.706Z" fill="#1E1D23"/>
<path fill-rule="evenodd" clip-rule="evenodd" d="M145 28.7062C80.3827 28.7062 28 81.0889 28 145.706C28 210.324 80.3827 262.706 145 262.706C209.617 262.706 262 210.324 262 145.706C262 81.0889 209.617 28.7062 145 28.7062ZM0 145.706C0 65.6249 64.9187 0.706177 145 0.706177C225.081 0.706177 290 65.6249 290 145.706C290 225.787 225.081 290.706 145 290.706C64.9187 290.706 0 225.787 0 145.706Z" fill="url(#paint0_linear_1_112)"/>
<path d="M192 211.28C170.628 196.516 141.14 203.692 132 229.706H149.386C166.209 229.706 181.366 222.617 192 211.28Z" fill="#7B7B85"/>
<defs>
<linearGradient id="paint0_linear_1_112" x1="163.692" y1="35.3009" x2="280.663" y2="247.02" gradientUnits="userSpaceOnUse">
<stop stop-color="#4CC9F0"/>
<stop offset="0.28684" stop-color="#4361EE"/>
<stop offset="0.524848" stop-color="#7209B7"/>
<stop offset="0.83892" stop-color="#F72585"/>
</linearGradient>
</defs>
</svg>
